<ttFont>
          <CharString index="0">
            14 callsubr
            140 28 116 21 163 vvcurveto
            43 -31 54 -75 -158 -74 -219 -148 -120 46 -35 101 99 57 77 0 vhcurveto
            -217 178 rmoveto
            8 62 19 85 30 46 rrcurveto
            9 6 23 5 28 hhcurveto
            54 8 -34 -24 -68 -14 -44 -162 -37 hvcurveto
            return
          </CharString>
          <CharString index="1">
            rmoveto
            153 87 153 200 107 -41 62 -94 -153 -90 -155 -200 28 callsubr
            hvcurveto
            38 59 rmoveto
            -75 -19 29 120 114 41 107 16 15 hvcurveto
            12 13 29 6 22 hhcurveto
            75 18 -34 -115 -114 -39 -111 -16 -15 hvcurveto
            -12 -13 -30 -2 -22 hhcurveto
            return
          </CharString>
          <CharString index="2">
            rmoveto
            41 20 33 31 33 -22 21 -30 -41 -19 -35 -31 -29 20 -23 31 hvcurveto
            return
          </CharString>
          <CharString index="3">
            rmoveto
            -103 -97 29 -28 111 76 99 -79 30 35 -80 101 rlineto
            19 -17 -9 14 -10 hhcurveto
            -11 -24 -27 -14 -15 hvcurveto
            return
          </CharString>
          <CharString index="4">
            rmoveto
            -4 -37 rlineto
            409 hlineto
            hintmask 01101100
            19 -36 callgsubr
            hintmask 10101100
            -103 callgsubr
            hintmask 10110100
            -110 49 vlineto
            hintmask 10101100
            -77 callgsubr
          </CharString>
          <CharString index="5">
            rmoveto
            -35 -45 19 -19 71 35 67 -23 rlineto
            -8 21 24 -8 18 hhcurveto
            20 16 18 22 18 hvcurveto
            35 42 -19 19 -71 -35 -67 23 rlineto
            7 -22 -25 9 -17 hhcurveto
            -20 -15 -14 -23 -18 hvcurveto
            return
          </CharString>
          <CharString index="6">
            rmoveto
            -7 -44 93 -17 -39 -278 rlineto
            -35 -44 -47 -22 -56 hhcurveto
            -85 -27 50 79 26 3 27 4 29 hvcurveto
            17 126 84 15 7 44 rlineto
            -251 hlineto
            -7 -44 80 -15 -20 -142 rlineto
            -4 -28 -2 -26 -24 vvcurveto
            -111 43 -69 132 61 49 15 32 52 vhcurveto
            -106 -16 -48 -93 -116 hhcurveto
            -42 -44 12 27 -45 hvcurveto
            -13 111 rlineto
            -47 hlineto
            -19 -143 rlineto
            -40 68 67 -18 73 hhcurveto
            148 96 70 193 27 hvcurveto
            48 340 75 15 7 44 rlineto
            endchar
          </CharString>
          <CharString index="7">
            rmoveto
            23 -26 80 37 66 -23 rlineto
            -9 24 32 -11 20 hhcurveto
            22 17 14 20 16 hvcurveto
            37 48 -23 26 -80 -37 -66 23 rlineto
            9 -25 -32 11 -19 hhcurveto
            -22 -17 -14 -20 -16 hvcurveto
            return
          </CharString>
          <CharString index="8">
            56 callsubr
            hintmask 10010110
            -93 callsubr
            hintmask 01010110
            -96 callsubr
            hintmask 10010110
            -96 callgsubr
            hintmask 01101010
            -10 callsubr
            endchar
          </CharString>
          <CharString index="9">
            rmoveto
            143 83 75 121 hvcurveto
            141 -242 80 115 vvcurveto
            56 35 32 81 55 43 -19 0 vhcurveto
            8 -104 rlineto
            44 hlineto
            17 150 rlineto
            12 -32 -60 12 -60 hhcurveto
            -120 -87 -52 -118 hvcurveto
            -142 242 -71 -121 vvcurveto
            -70 -39 -46 -105 -61 -25 27 0 vhcurveto
            -11 111 rlineto
            -49 hlineto
            -16 -141 rlineto
            -20 20 70 -28 66 hhcurveto
            return
          </CharString>
          <CharString index="10">
            rmoveto
            22 -35 130 54 rlineto
            32 13 18 13 25 vvcurveto
            19 -13 21 -21 10 vhcurveto
            return
          </CharString>
          <CharString index="11">
            -16 -22 -8 -17 -18 vvcurveto
            -36 18 -14 41 47 47 -64 callsubr
            -75 vlineto
            77 447 -78 -12 rlineto
            return
          </CharString>
          <CharString index="12">
            rmoveto
            26 -32 101 65 rlineto
            21 13 33 23 21 vvcurveto
            18 -7 22 -35 12 vhcurveto
            return
          </CharString>
          <CharString index="13">
            rmoveto
            -21 19 rlineto
            0 -60 -71 -85 -63 -21 68 0 vhcurveto
            -21 -9 -26 -16 -16 vvcurveto
            -35 39 -55 79 113 66 115 0 vhcurveto
            return
          </CharString>
          <CharString index="14">
            -4 -19 -3 23 callgsubr
            72 81 30 24 vhcurveto
            3 -2 rlineto
            return
          </CharString>
          <CharString index="15">
            rmoveto
            17 -17 rlineto
            16 7 75 43 60 vvcurveto
            42 -24 16 -27 -26 -13 -15 -8 -5 vhcurveto
            10 -9 14 -17 -31 vvcurveto
            -38 -37 -33 0 vhcurveto
            endchar
          </CharString>
          <CharString index="16">
            rmoveto
            41 -19 11 -13 10 vhcurveto
            -55 -39 rlineto
            -15 vlineto
            13 -9 8 -8 -17 vvcurveto
            -32 -25 -31 -30 -26 vhcurveto
            82 -10 -42 46 -81 hhcurveto
            -153 -90 -155 -200 28 callsubr
            153 87 153 200 hvcurveto
            5 vlineto
            90 61 29 53 37 vvcurveto
            -256 -436 rmoveto
            -12 -13 -30 -2 -22 hhcurveto
            -75 -19 29 120 114 41 107 16 15 hvcurveto
            12 13 29 6 22 hhcurveto
            75 18 -34 -115 -114 -39 -111 -16 -15 hvcurveto
            return
          </CharString>
          <CharString index="17">
            35 20 29 33 33 -20 21 -31 -33 -22 -28 -32 -33 20 -23 31 hvcurveto
            return
          </CharString>
          <CharString index="18">
            rmoveto
            79 -101 rlineto
            -19 17 9 -14 10 hhcurveto
            11 23 26 15 16 hvcurveto
            102 96 -26 30 -112 -80 -96 82 rlineto
            return
          </CharString>
          <CharString index="19">
            rmoveto
            130 -54 22 35 -168 120 rlineto
            -21 -10 -13 -21 -19 vvcurveto
            -25 18 -13 32 -13 vhcurveto
            return
          </CharString>
          <CharString index="20">
            rmoveto
            58 -59 rlineto
            -10 10 40 -39 11 hhcurveto
            9 16 7 48 51 hvcurveto
            65 61 -25 33 -102 -72 -98 69 rlineto
            return
          </CharString>
          <CharString index="21">
            rmoveto
            22 -27 rlineto
            33 hlineto
            43 321 51 callgsubr
            -43 106 -18 rlineto
            hintmask 10010100
            -27 -188 rlineto
            -16 -31 -34 -16 -55 hhcurveto
            -93 -54 59 163 249 98 98 112 70 45 -28 0 hvcurveto
            6 -90 rlineto
            42 hlineto
            hintmask 10001100
            19 147 rlineto
            hintmask 10010100
            0 -75 22 -88 -205 -114 -205 -214 -165 76 -87 137 84 39 26 12 19 vhcurveto
            endchar
          </CharString>
          <CharString index="22">
            rmoveto
            -2 -41 rlineto
            -23 29 27 -3 25 hhcurveto
            47 22 20 47 27 hvcurveto
            53 91 rlineto
            176 202 82 197 73 vvcurveto
            37 -66 18 -59 vhcurveto
            -19 -36 72 -49 -27 -129 -61 -106 -85 -119 rlinecurve
            -6 return
          </CharString>
          <CharString index="23">
            -82 callsubr
            rlineto
            return
          </CharString>
          <CharString index="24">
            -91 callgsubr
            endchar
          </CharString>
          <CharString index="25">
            hlineto
            -43 callgsubr
            return
          </CharString>
          <CharString index="26">
            rmoveto
            hintmask 01101010
            -68 callgsubr
            hintmask 10101100
            -69 callsubr
            hintmask 10101010
            -75 hlineto
            -66 callgsubr
            hintmask 10011010
            18 callgsubr
          </CharString>
          <CharString index="27">
            -25 -35 rlineto
            16 -30 -45 15 -45 hhcurveto
            -155 -61 -246 -78 -118 54 -39 61 79 69 89 32 12 hvcurveto
            3 -2 -6 -12 -12 -29 -7 -32 rlinecurve
            -16 -78 rlineto
            return
          </CharString>
          <CharString index="28">
            46 304 rmoveto
            -44 -256 rlineto
            -41 -28 -52 -63 -47 hhcurveto
            -49 -10 44 77 107 30 106 41 57 hvcurveto
            7 5 9 5 19 hhcurveto
            48 44 -20 -23 34 hvcurveto
            endchar
          </CharString>
          <CharString index="29">
            -64 callgsubr
            79 hmoveto
            77 546 rlineto
            0 14 4 46 151 48 -82 -142 vhcurveto
            -202 -3 -92 -130 -165 hhcurveto
            -33 -43 6 0 hvcurveto
            return
          </CharString>
          <CharString index="30">
            836 rmoveto
            -31 -5 -31 -20 -24 vvcurveto
            -19 19 -25 13 -14 vhcurveto
            51 -52 35 24 rlineto
            97 135 rmoveto
            -31 -5 -31 -20 -24 vvcurveto
            -19 19 -25 13 -14 vhcurveto
            51 -52 35 24 rlineto
            return
          </CharString>
          <CharString index="31">
            rmoveto
            -25 hlineto
            -1 -44 -29 -47 -72 60 -19 83 123 59 91 59 hvcurveto
            hintmask 11011000
            -20 callgsubr
            hintmask 11010100
            -65 callsubr
            hintmask 11011000
            -20 callsubr
            hintmask 11101000
            -50 -25 17 0 hvcurveto
            endchar
          </CharString>
          <CharString index="32">
            rmoveto
            -13 callsubr
            25 181 195 364 51 15 5 37 rlineto
            -187 hlineto
            -5 -37 73 -15 rlineto
            -17 vlineto
            -143 51 callsubr
            return
          </CharString>
          <CharString index="33">
            45 -45 152 162 44 134 156 -46 46 return
          </CharString>
          <CharString index="34">
            68 callgsubr
            endchar
          </CharString>
          <CharString index="35">
            -24 -6 64 callgsubr
            164 153 return
          </CharString>
          <CharString index="36">
            -4 -74 callgsubr
            return
          </CharString>
          <CharString index="37">
            rmoveto
            -77 -434 rlineto
            81 hlineto
            57 375 rlineto
            18 13 30 32 66 hhcurveto
            42 hlineto
            6 7 9 16 23 vvcurveto
            32 -15 10 -21 -56 -52 -60 -41 -17 vhcurveto
            -4 hlineto
            return
          </CharString>
          <CharString index="38">
            -51 -43 callsubr
            18 -14 42 47 46 -42 callgsubr
            return
          </CharString>
          <CharString index="39">
            rmoveto
            -33 hlineto
            0 -45 -26 -55 vvcurveto
            -61 55 -30 91 138 76 74 108 18 vhcurveto
            83 501 rlineto
            -38 hlineto
            return
          </CharString>
          <CharString index="40">
            67 -14 67 callgsubr
            117 277 rmoveto
            39 269 rlineto
            0 22 3 40 84 19 -47 -70 -104 -78 -51 -126 vhcurveto
            return
          </CharString>
          <CharString index="41">
            591 -105 callsubr
            return
          </CharString>
          <CharString index="42">
            33 26 -11 0 hvcurveto
            8 -92 rlineto
            25 hlineto
            0 45 19 52 vvcurveto
            53 -48 34 -85 -107 -66 -76 -56 vhcurveto
            return
          </CharString>
          <CharString index="43">
            31 0 vhcurveto
            39 return
          </CharString>
          <CharString index="44">
            rmoveto
            -58 -344 46 callgsubr
            -46 19 -19 58 60 73 -64 callsubr
            -132 vlineto
            58 384 rlineto
            123 hlineto
            8 57 rlineto
            -122 hlineto
            19 113 -71 -11 -19 -102 rlineto
            -88 hlineto
            -8 -57 rlineto
            return
          </CharString>
          <CharString index="45">
            -97 -8 callsubr
            -213 -27 callgsubr
            54 -12 128 -362 -26 -186 rlineto
            return
          </CharString>
          <CharString index="46">
            -32 -13 -12 -12 -20 vvcurveto
            -8 2 -8 3 -11 vhcurveto
            return
          </CharString>
          <CharString index="47">
            -17 -144 rlineto
            0 48 -27 74 92 49 34 91 12 vhcurveto
            66 486 10 callgsubr
            -237 -27 callgsubr
            87 -17 return
          </CharString>
          <CharString index="48">
            rmoveto
            -28 -64 50 -24 29 68 rlineto
            hintmask 10011100
            -2 10 10 -1 11 hhcurveto
            153 87 153 200 68 -17 49 -36 28 hvcurveto
            26 60 -48 22 -27 -61 rlineto
            hintmask 10101100
            2 -10 -12 1 -11 hhcurveto
            -153 -90 -155 -200 hvcurveto
            hintmask 01101100
            -68 19 -50 37 -26 vhcurveto
            hintmask 10101100
            192 432 rmoveto
            -155 -350 rlineto
            -8 23 -3 33 47 vvcurveto
            71 callsubr
            18 15 -2 -5 12 hvcurveto
            -114 -391 rmoveto
            152 346 rlineto
            7 -23 3 -31 -43 vvcurveto
            -114 -39 -111 -16 -15 vhcurveto
            -12 -13 -30 -2 -22 hhcurveto
            -17 -13 1 4 -12 hvcurveto
            endchar
          </CharString>
          <CharString index="49">
            745 rmoveto
            -95 -162 30 -22 76 74 rlineto
            16 16 27 27 21 vvcurveto
            17 -7 17 -47 12 vhcurveto
            152 hmoveto
            -95 -162 30 -22 76 74 rlineto
            16 16 27 27 21 vvcurveto
            17 -7 17 -47 12 vhcurveto
            return
          </CharString>
          <CharString index="50">
            rlineto
            -1 -8 -1 -8 -6 vvcurveto
            -37 return
          </CharString>
          <CharString index="51">
            -24 -6 68 -66 70 445 -20 22 -20 hstemhm
            45 56 209 153 hintmask 10011100
            101 6 rmoveto
            -8 8 1 4 rlineto
            -14 15 19 -10 23 hhcurveto
            99 59 81 30 22 hvcurveto
            3 -2 rlineto
            hintmask 01011100
            -96 callsubr
            hintmask 10101100
            -62 -360 rlineto
            -26 -24 -55 -53 -51 hhcurveto
            -21 -30 2 37 24 5 17 2 14 hvcurveto
            55 355 rlineto
            -11 hlineto
            -73 -12 rlineto
            -65 vlineto
            -49 -285 rlineto
            -14 -81 -14 -57 -102 vvcurveto
            -36 3 -36 35 29 22 19 9 6 vhcurveto
            hintmask 10011100
            -36 54 -3 67 20 vvcurveto
            endchar
          </CharString>
          <CharString index="52">
            -9 55 callsubr
            169 152 hintmask 10101100
            return
          </CharString>
          <CharString index="53">
            52 -27 rlineto
            12 -7 11 -8 -11 vvcurveto
            -16 -14 -7 -30 -33 -13 7 9 -14 vhcurveto
            endchar
          </CharString>
          <CharString index="54">
            -100 -21 -40 -17 -73 hhcurveto
            -58 -29 29 0 hvcurveto
            294 498 rmoveto
            -40 -232 rlineto
            return
          </CharString>
          <CharString index="55">
            rmoveto
            -37 -82 50 -24 39 87 rlineto
            hintmask 10011100
            -4 20 22 -3 23 hhcurveto
            228 103 203 210 108 -37 78 -70 41 hvcurveto
            36 78 -48 23 -37 -81 rlineto
            hintmask 10101100
            7 -25 -28 4 -30 hhcurveto
            -207 -116 -197 -215 hvcurveto
            hintmask 01101100
            -112 40 -82 74 -39 vhcurveto
            hintmask 10101100
            267 581 rmoveto
            -239 -520 rlineto
            -38 37 -13 64 96 vvcurveto
            199 4 58 137 149 hhcurveto
            31 26 -5 -8 22 hvcurveto
            -191 -547 rmoveto
            236 517 rlineto
            32 -35 13 -57 -82 vvcurveto
            -207 -54 -145 -158 -27 -22 3 6 -20 vhcurveto
            endchar
          </CharString>
          <CharString index="56">
            4 37 rlineto
            return
          </CharString>
          <CharString index="57">
            -129 rmoveto
            -20 -29 rlineto
            -13 17 28 -16 39 hhcurveto
            47 61 14 75 22 -14 15 -18 11 hvcurveto
            return
          </CharString>
          <CharString index="58">
            59 -54 70 387 60 4 -20 return
          </CharString>
          <CharString index="59">
            77 546 -22 callsubr
            return
          </CharString>
          <CharString index="60">
            -25 -35 rlineto
            5 -10 -54 26 -104 callgsubr
            return
          </CharString>
          <CharString index="61">
            244 0 66 543 51 hstem
            144 88 379 88 vstem
            59 143 rmoveto
            -21 -143 rlineto
            280 hlineto
            7 45 rlineto
            -75 69 -18 85 80 vvcurveto
            209 80 121 138 98 63 -57 -127 -165 -28 -106 -148 -109 vhcurveto
            -7 -45 rlineto
            300 hlineto
            21 143 rlineto
            -40 hlineto
            -31 -77 rlineto
            -154 hlineto
            1 8 rlineto
            39 31 135 119 208 vvcurveto
            125 -76 103 -157 -194 -128 -186 -187 -119 70 -70 27 -23 vhcurveto
            -1 -9 rlineto
            -132 hlineto
            -9 77 rlineto
            endchar
          </CharString>
          <CharString index="62">
            79 -17 -53 callgsubr
            return
          </CharString>
          <CharString index="63">
            rmoveto
            -41 29 -26 53 62 35 50 53 41 -28 25 -54 -62 -35 -49 -53 vhcurveto
            51 9 rmoveto
            32 9 17 28 27 12 -7 -23 -32 -9 -19 -27 -30 -10 9 23 vhcurveto
            return
          </CharString>
          <CharString index="64">
            -284 -57 callsubr
            return
          </CharString>
          <CharString index="65">
            rmoveto
            -97 -558 -39 callgsubr
            return
          </CharString>
          <CharString index="66">
            -27 -95 -163 48 rlineto
            11 vlineto
            299 390 rlineto
            return
          </CharString>
          <CharString index="67">
            rmoveto
            -296 -380 28 -25 rlineto
            hintmask 0010000111000000
            -52 callgsubr
            hvcurveto
            hintmask 0100000111000000
            47 -22 30 0 vhcurveto
            -33 hlineto
            hintmask 1000000111000000
            -41 callsubr
            hintmask 0001001011000000
            -26 20 rlineto
            hintmask 0001000111000000
            -37 callsubr
            hintmask 0001100011000000
            -47 22 -30 0 vhcurveto
            33 hlineto
            hintmask 0001010011000000
            27 95 151 -55 rlineto
            endchar
          </CharString>
          <CharString index="68">
            0 47 87 74 65 8 -50 -36 3 vhcurveto
            23 40 11 32 40 -36 63 -85 return
          </CharString>
          <CharString index="69">
            rlineto
            69 -91 callgsubr
            return
          </CharString>
          <CharString index="70">
            -46 callgsubr
            hvcurveto
            return
          </CharString>
          <CharString index="71">
            14 -51 callsubr
            return
          </CharString>
          <CharString index="72">
            37 rmoveto
            -4 -37 rlineto
            217 hlineto
            255 106 214 192 163 -103 79 -156 hvcurveto
            -231 -27 callgsubr
            68 -14 -33 -234 rlineto
            -86 hlineto
            -8 -52 rlineto
            86 hlineto
            -36 -260 rlineto
            79 hmoveto
            36 260 rlineto
            145 hlineto
            8 52 rlineto
            -145 hlineto
            33 234 rlineto
            0 14 4 46 151 48 -82 -142 vhcurveto
            -202 -3 -92 -130 -165 hhcurveto
            -33 -43 6 0 hvcurveto
            endchar
          </CharString>
          <CharString index="73">
            rmoveto
            16 -15 rlineto
            16 7 64 42 73 vvcurveto
            27 -15 18 -27 -26 -12 -15 -8 -5 vhcurveto
            10 -14 4 -12 -18 vvcurveto
            -51 -25 -34 0 vhcurveto
            return
          </CharString>
          <CharString index="74">
            51 -51 146 -125 -21 23 -21 374 146 -51 51 -2 -20 22 -20 return
          </CharString>
          <CharString index="75">
            26 callsubr
            hintmask 01110000
            23 -36 callgsubr
            hintmask 10110000
            -51 callgsubr
            return
          </CharString>
          <CharString index="76">
            548 -141 139.5 return
          </CharString>
          <CharString index="77">
            165 -11 -98 callsubr
            return
          </CharString>
          <CharString index="78">
            124 36 129 0 hvcurveto
            return
          </CharString>
          <CharString index="79">
            -97 callgsubr
            hintmask 1001101010000000
            return
          </CharString>
          <CharString index="80">
            -91 callgsubr
            79 -17 return
          </CharString>
          <CharString index="81">
            -13 -27 -6 -15 -20 vvcurveto
            -34 20 -11 39 2 callsubr
            return
          </CharString>
          <CharString index="82">
            28 115 rlineto
            75 14 52 52 0 vvcurveto
            -21 33 rlineto
            0 -59 -40 -45 -67 -23 56 callgsubr
            80 123 42 callgsubr
            52 -27 26 -53 6 vhcurveto
            12 110 -47 8 -30 -120 rlineto
            -135 -29 -87 -191 -156 vvcurveto
            return
          </CharString>
          <CharString index="83">
            140 28 116 21 163 vvcurveto
            43 -31 54 -75 -158 -74 -219 -148 -120 46 -35 101 vhcurveto
            return
          </CharString>
          <CharString index="84">
            698 rmoveto
            34 -30 93 85 rlineto
            20 17 13 16 17 vvcurveto
            23 -22 24 -29 3 vhcurveto
            return
          </CharString>
          <CharString index="85">
            -73 callgsubr
            -77 -546 rlineto
            return
          </CharString>
          <CharString index="86">
            -72 -166 49 149 60 357 64 4 -20 return
          </CharString>
          <CharString index="87">
            -135 203 -28 -92 vvcurveto
            -46 -14 -37 -86 vhcurveto
            return
          </CharString>
          <CharString index="88">
            -4 -1 callsubr
            return
          </CharString>
          <CharString index="89">
            -166 118 return
          </CharString>
          <CharString index="90">
            8 53 23 25 5 5 rlinecurve
            6 6 24 6 28 hhcurveto
            69 hlineto
            -1 14 13 27 28 -13 8 -26 -102 -90 -73 -131 -20 hvcurveto
            -69 hlineto
            -16 -25 rlineto
            -32 return
          </CharString>
          <CharString index="91">
            88 vstem
            -14 callsubr
            return
          </CharString>
          <CharString index="92">
            -69 hlineto
            1 -14 -13 -27 -28 13 -8 26 return
          </CharString>
          <CharString index="93">
            19 37 -78 callsubr
            return
          </CharString>
          <CharString index="94">
            -3 -74 callgsubr
            return
          </CharString>
          <CharString index="95">
            -8 callgsubr
            21 108 35 153 -110 108 hintmask 0101101010000000
            return
          </CharString>
          <CharString index="96">
            99 32 43 62 33 36 -18 -50 -99 -32 -43 -62 -33 -36 18 50 vhcurveto
            return
          </CharString>
          <CharString index="97">
            44 282 -38 callsubr
            return
          </CharString>
          <CharString index="98">
            -19 callsubr
            -6 -20 return
          </CharString>
          <CharString index="99">
            280 -49 callgsubr
            return
          </CharString>
          <CharString index="100">
            hstemhm
            40 83 169 152 return
          </CharString>
          <CharString index="101">
            -20 0 48 600 -20 hstem
            394 94 vstem
            266 648 rmoveto
            -331 -648 rlineto
            553 41 hlineto
            -173 607 rlineto
            79 -600 rmoveto
            -363 25 hlineto
            236 475 127 -478 rlineto
            endchar
          </CharString>
          <CharString index="102">
            -16 -211 rlineto
            40 hlineto
            49 151 rlineto
            6 19 5 16 13 vvcurveto
            13 -5 12 -24 -14 -19 -4 -9 -22 vhcurveto
            return
          </CharString>
          <CharString index="103">
            -69 46 -48 79 114 58 81 114 69 -46 48 -79 return
          </CharString>
          <CharString index="104">
            -16 0 22 callsubr
            hstemhm
            412 86 hintmask 11101000
            return
          </CharString>
          <CharString index="105">
            vvcurveto
            -49 34 -14 41 61 44 47 0 vhcurveto
            return
          </CharString>
          <CharString index="106">
            70 -45 -21 445 68 return
          </CharString>
          <CharString index="107">
            634 rmoveto
            67 -23 rlineto
            -8 21 24 -8 18 hhcurveto
            20 16 18 22 18 hvcurveto
            35 42 -19 19 -71 -35 -67 23 rlineto
            7 -22 -25 9 -17 hhcurveto
            -20 -15 -14 -23 -18 hvcurveto
            -35 -45 19 -19 rlineto
            return
          </CharString>
          <CharString index="108">
            -15 16 callgsubr
            -20 20 hstemhm
            44 91 hintmask 11010000
            return
          </CharString>
          <CharString index="109">
            47 47 -42 callgsubr
            return
          </CharString>
          <CharString index="110">
            -67 -17 callgsubr
            hstemhm
            25 510 -508 138 hintmask 11100000
            return
          </CharString>
          <CharString index="111">
            -9 60 402 60 return
          </CharString>
          <CharString index="112">
            -34 0 -74 callsubr
            return
          </CharString>
          <CharString index="113">
            66 callgsubr
            73 76 166 76 vstem
            return
          </CharString>
          <CharString index="114">
            62 366 rlineto
            75 return
          </CharString>
          <CharString index="115">
            -53 -47 callgsubr
            return
          </CharString>
          <CharString index="116">
            hlineto
            3 37 -68 14 -86 callgsubr
            return
          </CharString>
          <CharString index="117">
            483 -9 51 -51 146 -137 45 -33 -21 23 -21 28 -21 367 146 -51 51 -2 -20 22 -20 108 47 hstemhm
            505 88 hintmask 0010000001110000
            return
          </CharString>
          <CharString index="118">
            rmoveto
            -41 -19 -35 -31 -29 20 -23 31 41 20 33 31 33 -22 21 -30 hvcurveto
            endchar
          </CharString>
          <CharString index="119">
            58 36 51 75 51 vvcurveto
            37 -17 24 -39 -33 -31 -36 -36 return
          </CharString>
          <CharString index="120">
            -59 callgsubr
            77 546 return
          </CharString>
          <CharString index="121">
            44 callgsubr
            0 -56 -46 -50 -75 -22 30 109 vhcurveto
            4 1 4 6 vvcurveto
            return
          </CharString>
          <CharString index="122">
            27 callsubr
            rlinecurve
            return
          </CharString>
          <CharString index="123">
            593 691 rmoveto
            hintmask 01010110
            -487 -702 50 -33 484 703 rlineto
            -619 -312 rmoveto
            -4 -36 rlineto
            251 hlineto
            4 34 -88 14 rlineto
            return
          </CharString>
          <CharString index="124">
            86 62 24 30 53 vvcurveto
            63 -49 28 -59 -93 -42 -65 0 vhcurveto
            22 -21 rlineto
            0 38 34 43 44 19 -19 -33 -32 -24 -22 -46 -40 vhcurveto
            endchar
          </CharString>
          <CharString index="125">
            rmoveto
            3 -2 rlineto
            return
          </CharString>
          <CharString index="126">
            13 callsubr
            rlineto
            121 hlineto
            return
          </CharString>
          <CharString index="127">
            103 -11 51 471 -20 118 -25 callgsubr
            78 66 vstem
            return
          </CharString>
          <CharString index="128">
            7 callgsubr
            hstem
            99 89 vstem
            return
          </CharString>
          <CharString index="129">
            37 248 43 272 48 -37 37 return
          </CharString>
          <CharString index="130">
            -94 callsubr
            endchar
          </CharString>
          <CharString index="131">
            66 callsubr
            55 116 hstem
            72 81 69 106 105 106 vstem
            return
          </CharString>
          <CharString index="132">
            45 25 39 38 29 -20 20 -30 -41 -28 -38 -39 -28 20 -21 29 hvcurveto
            return
          </CharString>
          <CharString index="133">
            rmoveto
            -4 -37 rlineto
            379 hlineto
            return
          </CharString>
          <CharString index="134">
            -8 -53 -23 -25 -5 -5 return
          </CharString>
          <CharString index="135">
            -107 47 -60 91 return
          </CharString>
          <CharString index="136">
            -34 -18 callsubr
            48 69 callgsubr
            151 112 165 49 hintmask 01010111
            return
          </CharString>
          <CharString index="137">
            rmoveto
            -41 -291 rlineto
            40 hlineto
            60 176 rlineto
            10 29 16 52 20 vvcurveto
            13 -5 14 -26 -14 -18 -4 -9 -22 vhcurveto
            endchar
          </CharString>
          <CharString index="138">
            -107 -627 rlineto
            79 hlineto
            61 398 rlineto
            12 20 60 35 53 hhcurveto
            35 18 -16 -30 -60 -86 -75 -70 -39 hvcurveto
            -20 vlineto
            return
          </CharString>
          <CharString index="139">
            -51 -285 rlineto
            return
          </CharString>
          <CharString index="140">
            27 8 61 26 55 vvcurveto
            47 -44 29 -55 -77 -36 -50 0 vhcurveto
            21 -23 rlineto
            0 27 21 40 45 11 -16 -22 vhcurveto
            return
          </CharString>
          <CharString index="141">
            80 -104 28 20 -67 150 95 147 -21 16 -99 -95 rlineto
            -19 -18 -38 -42 -7 vvcurveto
            -12 29 -37 12 -18 vhcurveto
            return
          </CharString>
          <CharString index="142">
            -40 0 -74 callsubr
            return
          </CharString>
          <CharString index="143">
            107 0 37 callgsubr
            return
          </CharString>
          <CharString index="144">
            -124 -36 -129 0 hvcurveto
            return
          </CharString>
          <CharString index="145">
            -53 -18 callsubr
            39 55 callsubr
            18 112 39 152 hintmask 11010101
            return
          </CharString>
          <CharString index="146">
            -25 -35 rlineto
            6 -11 -53 25 -50 hhcurveto
            -162 -63 -266 -97 -97 33 -62 85 61 57 60 55 31 hvcurveto
            return
          </CharString>
          <CharString index="147">
            -73 hlineto
            88 561 50 callgsubr
            return
          </CharString>
          <CharString index="148">
            144 0 45 -45 152 128 44 168 156 -52 52 -46 46 hstemhm
            641 49 hintmask 10100110
            return
          </CharString>
          <CharString index="149">
            23 vhcurveto
            hintmask 00110000
            5 6 1 3 5 hvcurveto
            return
          </CharString>
          <CharString index="150">
            -29 callsubr
            endchar
          </CharString>
          <CharString index="151">
            -278 450 57 128 76 hstem
            34 355 vstem
            129 450 rmoveto
            -95 -625 78 10 return
          </CharString>
          <CharString index="152">
            37 113 rlineto
            126 hlineto
            return
          </CharString>
          <CharString index="153">
            -11 57 565 37 return
          </CharString>
          <CharString index="154">
            624 rmoveto
            21 13 33 23 21 vvcurveto
            18 -7 22 -35 12 vhcurveto
            -139 -142 26 -32 rlineto
            return
          </CharString>
          <CharString index="155">
            40 82 214 return
          </CharString>
          <CharString index="156">
            -9 -33 callsubr
            hstemhm
            return
          </CharString>
          <CharString index="157">
            586 rmoveto
            21 -18 rlineto
            return
          </CharString>
          <CharString index="158">
            -286 rlineto
            -11 hlineto
            return
          </CharString>
          <CharString index="159">
            rmoveto
            -19 -27 rlineto
            0 25 -31 63 95 57 47 67 60 -52 6 -26 3 vhcurveto
            4 vlineto
            return
          </CharString>
          <CharString index="160">
            567 rmoveto
            -388 -579 48 -33 385 580 rlineto
            -542 -181 rmoveto
            return
          </CharString>
          <CharString index="161">
            46 hhcurveto
            49 18 -31 -77 -107 -36 -114 -37 -56 hvcurveto
            -6 -4 -5 -3 -32 hhcurveto
            return
          </CharString>
          <CharString index="162">
            -49 callsubr
            hstemhm
            40 83 return
          </CharString>
          <CharString index="163">
            rmoveto
            32 callsubr
            return
          </CharString>
          <CharString index="164">
            -259 -4 -28 callgsubr
            104 118 -4 callgsubr
            return
          </CharString>
          <CharString index="165">
            65 55 51 63 35 hvcurveto
            return
          </CharString>
          <CharString index="166">
            hlineto
            2 14 rlineto
            72 vlineto
            -122 -16 rlineto
            -24 vlineto
            53 -32 -3 -14 rlineto
            return
          </CharString>
          <CharString index="167">
            rmoveto
            -6 -59 rlineto
            400 hlineto
            6 59 rlineto
            return
          </CharString>
          <CharString index="168">
            37 rmoveto
            80 callgsubr
            259 rlineto
            return
          </CharString>
          <CharString index="169">
            -186 -156 855 hstem
            150 60 vstem
            150 699 rmoveto
            return
          </CharString>
          <CharString index="170">
            -49 callgsubr
            -211 -27 callgsubr
            54 -12 return
          </CharString>
          <CharString index="171">
            151 -90 112 hintmask 00000000
            return
          </CharString>
          <CharString index="172">
            -158 4 callsubr
            return
          </CharString>
          <CharString index="173">
            71 46 callsubr
            return
          </CharString>
          <CharString index="174">
            5 10 5 23 12 vvcurveto
            50 -91 callgsubr
            return
          </CharString>
          <CharString index="175">
            28 callsubr
            vhcurveto
            38 59 rmoveto
            -75 -19 29 120 hvcurveto
            return
          </CharString>
          <CharString index="176">
            349 -9 59 -54 70 -49 -21 457 60 0 -20 return
          </CharString>
          <CharString index="177">
            96 4 callsubr
            hstem
            38 83 434 76 vstem
            return
          </CharString>
          <CharString index="178">
            114 41 107 16 15 vhcurveto
            12 13 29 6 22 hhcurveto
            return
          </CharString>
          <CharString index="179">
            37 26 callsubr
            return
          </CharString>
          <CharString index="180">
            -14 51 -37 -18 callgsubr
            hstemhm
            return
          </CharString>
          <CharString index="181">
            -234 -4 70 384 57 hstem
            return
          </CharString>
          <CharString index="182">
            -19 rlineto
            -37 vlineto
            79 return
          </CharString>
          <CharString index="183">
            108 78 108 return
          </CharString>
          <CharString index="184">
            -3 -37 68 -14 return
          </CharString>
          <CharString index="185">
            rmoveto
            -71 -91 20 -18 rlineto
            return
          </CharString>
          <CharString index="186">
            153 -95 76 return
          </CharString>
          <CharString index="187">
            -63 callgsubr
            62 63 return
          </CharString>
          <CharString index="188">
            rmoveto
            -15 callsubr
            return
          </CharString>
          <CharString index="189">
            8 callgsubr
            -51 return
          </CharString>
          <CharString index="190">
            63 hstemhm
            428 49 hintmask 10101110
            return
          </CharString>
          <CharString index="191">
            -10 119 -97 -21 24 -21 return
          </CharString>
          <CharString index="192" raw="1">
            8f77d2c7 120b  
          </CharString>
          <CharString index="193">
            -25 0 37 273 47 254 37 hstem
            return
          </CharString>
          <CharString index="194">
            176 53 269 97 97 -33 59 -87 return
          </CharString>
          <CharString index="195">
            71 -11 -19 callgsubr
            vstem
            return
          </CharString>
        <CharString name=".notdef">
          -362 endchar
        </CharString>
        <CharString name="A">
          82 callsubr
          -31 callsubr
          hintmask 11110000
          -46 37 -92 callgsubr
          hintmask 11101000
          -106 callgsubr
          endchar
        </CharString>
        <CharString name="AE">
          41 callsubr
          -96 37 -50 callgsubr
        </CharString>
        <CharString name="AEacute">
          41 callsubr
          395 716 -97 callsubr
          -659 -799 -50 callgsubr
        </CharString>
        <CharString name="Aacute">
          8 callgsubr
          -57 -31 callsubr
          hintmask 11110000
          206 716 -97 callsubr
          -426 -799 -92 callgsubr
          hintmask 11101000
          -106 callgsubr
          endchar
        </CharString>
        <CharString name="Abreve">
          80 callsubr
          hstemhm
          -57 -31 callsubr
          hintmask 11111000
          458 810 -94 callsubr
          -510 -773 -92 callgsubr
          hintmask 11110100
          -106 callgsubr
          endchar
        </CharString>
        <CharString name="Acircumflex">
          8 callgsubr
          -57 -31 callsubr
          hintmask 11110000
          169 728 -102 callgsubr
          -292 -744 -92 callgsubr
          hintmask 11101000
          -106 callgsubr
          endchar
        </CharString>
        <CharString name="Adieresis">
          -63 callgsubr
          70 116 hstemhm
          149 106 95 139.5 -129.5 106 hintmask 11111010
          200 703 rmoveto
          -90 callsubr
          211 hmoveto
          -90 callsubr
          -463 -666 -92 callgsubr
          hintmask 11111100
          -106 callgsubr
          endchar
        </CharString>
        <CharString name="Agrave">
          8 callgsubr
          -57 -31 callsubr
          hintmask 11110000
          242 735 -88 callsubr
          -294 -698 -92 callgsubr
          hintmask 11101000
          -106 callgsubr
          endchar
        </CharString>
        <CharString name="Amacron">
          -63 callgsubr
          86 63 hstemhm
          -57 -31 callsubr
          hintmask 11111000
          165 782 -54 callgsubr
          -499 -745 -92 callgsubr
          hintmask 11110100
          -106 callgsubr
          endchar
        </CharString>
        <CharString name="Aogonek">
          -37 -177 51 126 37 149 57 410 -20 hstemhm
          281 66 3 139.5 hintmask 11111000
          -52 37 -92 callgsubr
          hintmask 11110100
          211 hlineto
          20 -111 rlineto
          -23 vlineto
          hintmask 11111000
          -70 -15 -3 -37 rlineto
          79 hlineto
          -45 -28 -30 -41 -45 -2 callsubr
          -40 callgsubr
          41 30 29 22 16 vhcurveto
          hintmask 11110100
          89 hlineto
          3 37 -58 12 -113 604 rlineto
          -42 hlineto
          -275 -601 rlineto
          316 191 rmoveto
          -174 hlineto
          124 278 rlineto
          endchar
        </CharString>
        <CharString name="Aring">
          -63 callgsubr
          29 44 81 44 hstemhm
          223 51 76 52 -52 139.5 hintmask 00000000
          hintmask 11111110
          223 729 -44 callsubr
          -326 -701 -92 callgsubr
          hintmask 11101101
          -106 callgsubr
          endchar
        </CharString>
        <CharString name="Aringacute">
          -63 callgsubr
          29 44 81 44 hstemhm
          235 51 70 139.5 -133.5 52 hintmask 11101101
          282 899 -97 callsubr
          hintmask 11111101
          -215 -290 -44 callsubr
          -332 -701 -92 callgsubr
          hintmask 11101110
          -106 callgsubr
          endchar
        </CharString>
        <CharString name="Atilde">
          8 callgsubr
          -57 -31 callsubr
          hintmask 11110000
          129 736 -100 callsubr
          -218 -747 -92 callgsubr
          hintmask 11101000
          -106 callgsubr
          endchar
        </CharString>
        <CharString name="B">
          -4 0 45 267 39 250 47 hstemhm
          375 90 -64 82 hintmask 11110000
          20 37 rmoveto
          -4 -37 rlineto
          201 hlineto
          176 72 108 98 77 -57 37 -71 17 hvcurveto
          hintmask 11101000
          104 38 42 72 69 vvcurveto
          83 -64 49 -130 vhcurveto
          -185 -84 callsubr
          121 300 rmoveto
          34 245 rlineto
          0 18 5 25 70 42 -21 -78 -90 -69 -51 -120 -10 vhcurveto
          -42 -300 rmoveto
          36 261 rlineto
          hintmask 11110000
          125 -3 44 -42 -77 vvcurveto
          -94 -50 -51 -94 vhcurveto
          hintmask 11101000
          -47 -14 6 0 hvcurveto
          endchar
        </CharString>
        <CharString name="C">
          1 callsubr
          432 167 -83 callgsubr
        </CharString>
        <CharString name="Cacute">
          1 callsubr
          278 716 -97 callsubr
          -14 -669 -83 callgsubr
        </CharString>
        <CharString name="Cacute.loclPLK">
          1 callsubr
          352 -23 callsubr
          -29 -686 -83 callgsubr
        </CharString>
        <CharString name="Ccaron">
          1 callsubr
          248 797 -87 callsubr
          149 -668 -83 callgsubr
        </CharString>
        <CharString name="Ccedilla">
          -15 -187 42 134 51 -50 50 569 51 -20 20 hstemhm
          44 91 77 77 -2 68 hintmask 11010101
          183 -50 callsubr
          hintmask 11010110
          -34 21 rlineto
          18 vlineto
          79 3 59 23 33 16 14 136 rcurveline
          -42 hlineto
          -31 -97 rlineto
          0 -39 -30 -72 -113 -42 72 155 214 79 128 140 40 42 -11 -9 18 vhcurveto
          7 -96 rlineto
          42 hlineto
          hintmask 11001101
          22 147 rlineto
          hintmask 10110110
          8 -30 -54 12 -74 hhcurveto
          -183 -140 -176 -240 -144 50 -98 147 -12 hvcurveto
          -29 -39 rlineto
          -20 vlineto
          hintmask 11010101
          -54 callsubr
        </CharString>
        <CharString name="Ccircumflex">
          1 callsubr
          252 728 -102 callgsubr
          109 -614 -83 callgsubr
        </CharString>
        <CharString name="Cdotaccent">
          -15 16 callgsubr
          -20 20 39 118 hstemhm
          44 91 196 112 hintmask 11011100
          382 -37 callgsubr
          50 -532 rmoveto
          -31 -97 rlineto
          0 -39 -30 -72 -113 -42 72 155 214 79 128 140 40 42 -11 -9 18 vhcurveto
          7 -96 rlineto
          42 hlineto
          hintmask 10111100
          22 147 rlineto
          hintmask 11011100
          8 -30 -54 12 -74 hhcurveto
          -183 -140 -176 -240 -153 57 -102 171 88 65 25 17 35 76 callgsubr
          endchar
        </CharString>
        <CharString name="D">
          88 0 45 556 47 hstem
          505 -16 callsubr
          endchar
        </CharString>
        <CharString name="Dcaron">
          81 0 45 556 47 hstem
          500 88 vstem
          223 797 -87 callsubr
          -244 -798 -78 callsubr
          endchar
        </CharString>
        <CharString name="Dcroat">
          81 0 45 266 52 238 47 hstem
          500 88 vstem
          14 -35 callsubr
        </CharString>
        <CharString name="E">
          5 callsubr
          hstemhm
          428 49 hintmask 10101100
          20 37 -103 callsubr
        </CharString>
        <CharString name="Eacute">
          35 callsubr
          hstemhm
          428 49 hintmask 10101100
          227 716 -97 callsubr
          -375 -799 -103 callsubr
        </CharString>
        <CharString name="Ebreve">
          5 callsubr
          47 83 callsubr
          478 810 -94 callsubr
          -458 -773 rmoveto
          -4 -37 rlineto
          409 hlineto
          hintmask 01101110
          19 -36 callgsubr
          hintmask 10101110
          -103 callgsubr
          hintmask 10110110
          -110 49 vlineto
          hintmask 10101110
          -77 callgsubr
        </CharString>
        <CharString name="Ecaron">
          35 callsubr
          hstemhm
          428 49 hintmask 10101100
          203 799 -87 callsubr
          -218 -800 -103 callsubr
        </CharString>
        <CharString name="Ecircumflex">
          35 callsubr
          hstemhm
          428 49 hintmask 10101100
          192 728 -102 callgsubr
          -243 -744 -103 callsubr
        </CharString>
        <CharString name="Edieresis">
          35 callsubr
          45 116 hstemhm
          169 106 105 106 -58 49 hintmask 1010111010000000
          220 693 rmoveto
          -90 callsubr
          hintmask 1010111100000000
          211 hmoveto
          -90 callsubr
          -411 -656 rmoveto
          -4 -37 rlineto
          409 hlineto
          hintmask 0110111100000000
          19 -36 callgsubr
          hintmask 1010111010000000
          -103 callgsubr
          hintmask 1011011010000000
          -110 49 vlineto
          hintmask 1010111010000000
          -77 callgsubr
        </CharString>
        <CharString name="Edotaccent">
          35 callsubr
          51 118 hstemhm
          274 112 42 49 hintmask 10101111
          325 -37 callgsubr
          -305 -662 rmoveto
          -4 -37 rlineto
          409 hlineto
          hintmask 01101111
          19 -36 callgsubr
          hintmask 10101111
          -103 callgsubr
          hintmask 10110111
          -110 49 vlineto
          hintmask 10101111
          -77 callgsubr
        </CharString>
        <CharString name="Egrave">
          35 callsubr
          hstemhm
          428 49 hintmask 10101100
          246 735 -88 callsubr
          -226 -698 -103 callsubr
        </CharString>
        <CharString name="Emacron">
          35 callsubr
          71 83 callsubr
          194 782 -54 callgsubr
          -456 -745 rmoveto
          -4 -37 rlineto
          409 hlineto
          hintmask 01101110
          19 -36 callgsubr
          hintmask 10101110
          -103 callgsubr
          hintmask 10110110
          -110 49 vlineto
          hintmask 10101110
          -77 callgsubr
        </CharString>
        <CharString name="Eng">
          107 -167 76 91 37 callgsubr
          466 648 rmoveto
          77 callsubr
          -67 -476 rlineto
          -5 hlineto
          -211 527 rlineto
          -145 -82 callsubr
          -71 -14 -4 -37 rlineto
          193 hlineto
          3 37 -68 14 66 468 rlineto
          5 hlineto
          211 -518 -9 -51 -22 -24 -5 -5 rlinecurve
          24 callgsubr
          95 64 140 20 hvcurveto
          79 560 10 callgsubr
          endchar
        </CharString>
        <CharString name="Eogonek">
          -40 -177 51 126 45 269 44 134 156 -46 46 hstemhm
          278 66 84 49 hintmask 11101110
          20 37 rmoveto
          -4 -37 rlineto
          337 hlineto
          -45 -28 -30 -41 -45 -2 callsubr
          -40 callgsubr
          41 30 29 22 16 vhcurveto
          29 hlineto
          19 -36 callgsubr
          -103 callgsubr
          hintmask 11110110
          -110 49 vlineto
          hintmask 11101110
          -77 callgsubr
        </CharString>
        <CharString name="Eth">
          91 0 45 266 52 238 47 hstem
          505 88 vstem
          19 -35 callsubr
        </CharString>
        <CharString name="Euro">
          3 -11 51 203 57 48 57 204 51 -20 20 hstemhm
          81 81 hintmask 11110100
          385 660 rmoveto
          -152 -91 -99 -156 -45 hvcurveto
          -49 hlineto
          -27 -57 rlineto
          338 hlineto
          27 57 rlineto
          -211 hlineto
          111 25 55 93 106 hhcurveto
          36 38 -11 -9 16 hvcurveto
          7 -96 rlineto
          42 hlineto
          hintmask 11101100
          22 147 rlineto
          hintmask 11110100
          9 -30 -58 11 -49 hhcurveto
          11 -590 rmoveto
          -20 -27 -33 -10 -32 hhcurveto
          -99 -38 86 117 -5 hvcurveto
          153 hlineto
          27 57 rlineto
          -309 hlineto
          -27 -57 rlineto
          75 hlineto
          -152 4 69 -102 137 hhcurveto
          68 64 25 17 32 76 callgsubr
          -42 hlineto
          endchar
        </CharString>
        <CharString name="Euro.osf">
          3 -11 56 128 57 48 57 140 56 hstem
          18 515 vstem
          86 335 rmoveto
          -27 -57 rlineto
          318 hlineto
          27 57 rlineto
          -212 hlineto
          93 26 47 47 106 hhcurveto
          55 37 -14 0 hvcurveto
          8 -94 rlineto
          45 hlineto
          17 133 rlineto
          17 -39 -39 14 -80 hhcurveto
          -145 -81 -91 -105 -36 hvcurveto
          -68 -105 rmoveto
          -27 -57 rlineto
          73 hlineto
          -133 2 69 -51 132 hhcurveto
          94 52 22 15 37 hvcurveto
          19 137 rlineto
          -45 hlineto
          -30 -93 rlineto
          0 -38 -25 -70 -84 -53 32 96 vhcurveto
          151 hlineto
          27 57 rlineto
          endchar
        </CharString>
        <CharString name="F">
          -63 0 37 251 50 260 50 -37 37 hstemhm
          432 50 hintmask 11101000
          20 37 rmoveto
          -4 -37 rlineto
          247 hlineto
          3 39 -96 14 34 235 rlineto
          143 hlineto
          4 -62 rlineto
          35 hlineto
          24 172 rlineto
          -36 hlineto
          -20 -60 rlineto
          -144 hlineto
          36 252 85 8 rlineto
          101 -99 50 hlineto
          23 149 rlineto
          -401 hlineto
          hintmask 11011000
          -43 callgsubr
          rlineto
          endchar
        </CharString>
        <CharString name="G">
          18 -21 callgsubr
          hstemhm
          48 90 hintmask 00000000
          hintmask 01110100
          411 27 -86 callsubr
        </CharString>
        <CharString name="G_tilde.loclGUA">
          18 -21 callgsubr
          hstemhm
          48 90 hintmask 10010100
          226 736 -100 callsubr
          hintmask 01110100
          148 -757 -86 callsubr
        </CharString>
        <CharString name="Gbreve">
          10 -21 callgsubr
          55 63 hstemhm
          40 90 hintmask 10010110
          522 810 -94 callsubr
          hintmask 01110110
          -119 -783 rmoveto
          22 -27 rlineto
          33 hlineto
          43 321 51 callgsubr
          -43 106 -18 rlineto
          hintmask 10010110
          -27 -188 rlineto
          -16 -31 -34 -16 -55 hhcurveto
          -93 -54 59 163 249 98 98 112 70 45 -28 0 hvcurveto
          6 -90 rlineto
          42 hlineto
          hintmask 10001110
          19 147 rlineto
          hintmask 10010110
          0 -75 22 -88 -205 -114 -205 -214 -165 76 -87 137 84 39 26 12 19 vhcurveto
          endchar
        </CharString>
        <CharString name="Gcaron">
          18 -21 callgsubr
          hstemhm
          48 90 hintmask 10010100
          265 797 -87 callsubr
          hintmask 01110100
          111 -808 -86 callsubr
        </CharString>
        <CharString name="Gcircumflex">
          18 -21 callgsubr
          hstemhm
          48 90 hintmask 10010100
          259 728 -102 callgsubr
          hintmask 01110100
          81 -754 -86 callsubr
        </CharString>
        <CharString name="Gcommaaccent">
          10 -21 callgsubr
          hstemhm
          40 90 108 71 hintmask 00000000
          hintmask 01110100
          403 27 rmoveto
          22 -27 rlineto
          33 hlineto
          43 321 51 callgsubr
          -43 106 -18 rlineto
          hintmask 10010100
          -27 -188 rlineto
          -16 -31 -34 -16 -55 hhcurveto
          -93 -54 59 163 249 98 98 112 70 45 -28 0 hvcurveto
          6 -90 rlineto
          42 hlineto
          hintmask 10001100
          19 147 rlineto
          hintmask 10010110
          0 -75 22 -88 -205 -114 -205 -214 -165 76 -87 137 84 39 26 12 19 vhcurveto
          -194 -211 -92 callsubr
        </CharString>
        <CharString name="Gdotaccent">
          18 -21 callgsubr
          59 118 hstemhm
          48 90 200 112 hintmask 10010111
          389 -37 callgsubr
          hintmask 01110111
          22 -672 rmoveto
          22 -27 rlineto
          33 hlineto
          43 321 51 callgsubr
          -43 106 -18 rlineto
          hintmask 10010111
          -27 -188 rlineto
          -16 -31 -34 -16 -55 hhcurveto
          -93 -54 59 163 249 98 98 112 70 45 -28 0 hvcurveto
          6 -90 rlineto
          42 hlineto
          hintmask 10001111
          19 147 rlineto
          hintmask 10010111
          0 -75 22 -88 -205 -114 -205 -214 -165 76 -87 137 84 39 26 12 19 vhcurveto
          endchar
        </CharString>
        <CharString name="H">
          120 0 72 callgsubr
          15 646 -26 callgsubr
          endchar
        </CharString>
        <CharString name="Hbar">
          120 0 37 230 55 110 52 127 37 hstem
          15 646 vstem
          657 611 rmoveto
          -67 callgsubr
          -16 -113 rlineto
          -261 hlineto
          16 113 -73 callgsubr
          -16 -113 rlineto
          -65 hlineto
          -8 -52 rlineto
          66 hlineto
          -54 -381 6 callgsubr
          30 216 rlineto
          261 hlineto
          -30 -216 6 callgsubr
          54 381 rlineto
          65 hlineto
          8 52 rlineto
          -66 hlineto
          16 113 rlineto
          -118 -275 rmoveto
          -261 hlineto
          16 110 rlineto
          261 hlineto
          endchar
        </CharString>
        <CharString name="Hcircumflex">
          120 0 72 callgsubr
          15 646 vstem
          262 728 -102 callgsubr
          -314 -744 -24 callgsubr
          endchar
        </CharString>
        <CharString name="I">
          -220 -17 callgsubr
          hstem
          16 306 vstem
          20 37 -94 callgsubr
          endchar
        </CharString>
        <CharString name="IJ">
          178 73 callsubr
          16 722 hintmask 01110000
          20 37 -94 callgsubr
          248 106 rmoveto
          hintmask 10110000
          -60 callsubr
          rlineto
          hintmask 01110000
          -38 callgsubr
        </CharString>
        <CharString name="Iacute">
          -220 -17 callgsubr
          hstem
          15 320 vstem
          133 716 -97 callsubr
          -282 -799 -94 callgsubr
          endchar
        </CharString>
        <CharString name="Iacute_J.loclNLD">
          178 73 callsubr
          16 772 hintmask 01110000
          175 716 -97 callsubr
          243 -120 -97 callsubr
          -734 -799 -94 callgsubr
          248 106 rmoveto
          hintmask 10110000
          -60 callsubr
          rlineto
          hintmask 01110000
          -38 callgsubr
        </CharString>
        <CharString name="Ibreve">
          -220 -17 callgsubr
          47 63 hstem
          16 369 vstem
          385 810 -94 callsubr
          -365 -773 -94 callgsubr
          endchar
        </CharString>
        <CharString name="Icircumflex">
          -234 -17 callgsubr
          hstem
          1 339 vstem
          68 728 -102 callgsubr
          -134 -744 -94 callgsubr
          endchar
        </CharString>
        <CharString name="Idieresis">
          -220 -17 callgsubr
          45 116 hstem
          78 106 85 106 vstem
          129 693 rmoveto
          -90 callsubr
          191 hmoveto
          -90 callsubr
          -301 -656 -94 callgsubr
          endchar
        </CharString>
        <CharString name="Idotaccent">
          -225 -17 callgsubr
          51 118 hstem
          170 112 vstem
          221 -37 callgsubr
          -207 -662 -94 callgsubr
          endchar
        </CharString>
        <CharString name="Igrave">
          -220 -17 callgsubr
          hstem
          15 306 vstem
          157 735 -88 callsubr
          -138 -698 -94 callgsubr
          endchar
        </CharString>
        <CharString name="Imacron">
          -220 -17 callgsubr
          71 63 hstem
          15 335 vstem
          110 782 rmoveto
          -9 -63 rlineto
          240 hlineto
          9 63 rlineto
          -331 -745 -94 callgsubr
          endchar
        </CharString>
        <CharString name="Iogonek">
          -220 -177 51 126 -18 callgsubr
          hstem
          23 66 vstem
          19 37 rmoveto
          -4 -37 rlineto
          83 hlineto
          -45 -28 -30 -41 -45 -2 callsubr
          -40 callgsubr
          41 30 29 22 16 vhcurveto
          93 9 callsubr
          -77 -546 rlineto
          endchar
        </CharString>
        <CharString name="Itilde">
          -220 -17 callgsubr
          hstem
          16 388 vstem
          67 736 -100 callsubr
          -84 -747 -94 callgsubr
          endchar
        </CharString>
        <CharString name="J">
          -149 -14 51 574 37 hstem
          -5 416 vstem
          12 157 rmoveto
          -60 callsubr
          -38 callgsubr
        </CharString>
        <CharString name="Jcircumflex">
          -149 -14 51 574 37 hstem
          -5 461 vstem
          184 728 -102 callgsubr
          -243 -624 rmoveto
          -60 callsubr
          -38 callgsubr
        </CharString>
        <CharString name="K">
          86 callsubr
          16 560 vstem
          20 61 callsubr
          41 hlineto
          139 -281 rlineto
          -24 12 12 -5 27 hhcurveto
          83 hlineto
          3 37 -58 15 -154 304 -3 callgsubr
          endchar
        </CharString>
        <CharString name="Kcommaaccent">
          86 callsubr
          228 71 vstem
          14 61 callsubr
          33 hlineto
          143 -281 rlineto
          -24 12 12 -5 27 hhcurveto
          87 hlineto
          3 37 -61 16 -151 303 -3 callgsubr
          106 -235 -92 callsubr
        </CharString>
        <CharString name="L">
          26 callgsubr
          15 402 hintmask 10110000
          19 37 -32 callgsubr
        </CharString>
        <CharString name="Lacute">
          26 callgsubr
          10 402 hintmask 10110000
          128 716 -97 callsubr
          -282 -799 -32 callgsubr
        </CharString>
        <CharString name="Lcaron">
          26 callgsubr
          385 71 hintmask 10110000
          360 566 -34 callsubr
          -346 -529 -32 callgsubr
        </CharString>
        <CharString name="Lcommaaccent">
          26 callgsubr
          188 71 hintmask 10110000
          14 37 -32 callsubr
          66 -235 -92 callsubr
        </CharString>
        <CharString name="Ldot">
          -105 0 46 -46 152 144 123 192 37 hstemhm
          15 408 -116 116 hintmask 10011000
          19 72 callsubr
          hintmask 01011000
          23 -36 callgsubr
          hintmask 10011000
          -51 callgsubr
          hintmask 10110100
          265 245 -45 callgsubr
          endchar
        </CharString>
        <CharString name="Lslash">
          26 callgsubr
          10 402 29 callgsubr
          36 253 107 42 rlineto
          54 vlineto
          -99 -40 33 237 -73 callgsubr
          -38 -270 -99 -39 rlineto
          -51 vlineto
          91 35 -31 -221 rlineto
          endchar
        </CharString>
        <CharString name="M">
          213 0 37 509 102 -37 37 hstemhm
          15 739 hintmask 10110000
          19 37 rmoveto
          -4 -37 rlineto
          193 hlineto
          3 37 -68 14 rlineto
          hintmask 11010000
          70 495 rlineto
          4 hlineto
          85 -546 rlineto
          44 hlineto
          242 546 rlineto
          4 hlineto
          -69 -495 6 callgsubr
          rlineto
          hintmask 10110000
          77 546 10 callgsubr
          -176 hlineto
          -207 -467 -21 -55 -4 55 -67 467 rlineto
          -176 -84 callsubr
          endchar
        </CharString>
        <CharString name="N">
          36 callsubr
          -12 callgsubr
          endchar
        </CharString>
        <CharString name="Nacute">
          36 callsubr
          317 719 rmoveto
          22 -35 130 54 rlineto
          32 13 18 13 25 vvcurveto
          19 -13 21 -47 10 vhcurveto
          -440 -802 -93 callgsubr
          endchar
        </CharString>
        <CharString name="Nacute.loclPLK">
          36 callsubr
          363 -23 callsubr
          -453 -816 -93 callgsubr
          endchar
        </CharString>
        <CharString name="Ncaron">
          36 callsubr
          270 797 -87 callsubr
          -286 -798 -93 callgsubr
          endchar
        </CharString>
        <CharString name="Ncommaaccent">
          107 -17 callgsubr
          hstem
          270 71 vstem
          -12 callgsubr
          143 -235 -92 callsubr
        </CharString>
        <CharString name="Ntilde">
          36 callsubr
          239 736 -100 callsubr
          -257 -747 -93 callgsubr
          endchar
        </CharString>
        <CharString name="O">
          -57 callgsubr
          275 -11 -105 callgsubr
          endchar
        </CharString>
        <CharString name="OE">
          233 0 69 callgsubr
          35 91 574 49 hintmask 10101110
          636 45 rmoveto
          -102 hlineto
          -57 -36 6 0 hvcurveto
          38 263 rlineto
          132 hlineto
          5 -59 rlineto
          36 hlineto
          21 162 rlineto
          -36 hlineto
          -21 -59 rlineto
          -131 hlineto
          34 239 80 5 rlineto
          101 hlineto
          hintmask 10110110
          -110 49 vlineto
          hintmask 10101110
          21 156 rlineto
          -405 hlineto
          -207 -123 -189 -211 -161 85 -87 149 hvcurveto
          428 hlineto
          hintmask 01101110
          19 -36 callgsubr
          -235 443 rmoveto
          hintmask 10101110
          -76 -544 rlineto
          -3 -21 -22 -1 -23 hhcurveto
          -130 -41 65 161 hvcurveto
          199 4 68 132 150 hhcurveto
          hintmask 01101110
          35 29 -3 -6 27 hvcurveto
          endchar
        </CharString>
        <CharString name="Oacute">
          -57 callgsubr
          293 734 -97 callsubr
          -186 -865 -105 callgsubr
          endchar
        </CharString>
        <CharString name="Oacute.loclPLK">
          -57 callgsubr
          349 -23 callsubr
          -183 -864 -105 callgsubr
          endchar
        </CharString>
        <CharString name="Obreve">
          58 callgsubr
          35 73 callgsubr
          534 810 -94 callsubr
          -259 -821 -105 callgsubr
          endchar
        </CharString>
        <CharString name="Ocircumflex">
          -57 callgsubr
          258 746 rmoveto
          25 -33 108 61 106 -67 33 41 -60 55 -11 9 -44 39 -10 1 rlinecurve
          -9 -12 -9 -44 -55 hvcurveto
          -54 -810 -105 callgsubr
          endchar
        </CharString>
        <CharString name="Odieresis">
          58 callgsubr
          51 116 hstemhm
          44 91 106 106 105 106 -43 91 hintmask 11111010
          292 711 rmoveto
          -90 callsubr
          hintmask 11111100
          211 hmoveto
          -90 callsubr
          -228 -722 rmoveto
          hintmask 11111010
          228 103 203 210 163 -82 95 -157 -207 -116 -197 -215 hvcurveto
          hintmask 11111100
          -41 callgsubr
          vhcurveto
          hintmask 11111010
          28 51 rmoveto
          -130 -38 72 161 199 62 137 149 124 45 -64 -153 -207 -54 -145 -158 hvcurveto
          endchar
        </CharString>
        <CharString name="Ograve">
          -57 callgsubr
          322 753 -88 callsubr
          -47 -764 -105 callgsubr
          endchar
        </CharString>
        <CharString name="Ohorn">
          20 callsubr
          750 654 -90 callgsubr
          endchar
        </CharString>
        <CharString name="Ohungarumlaut">
          -57 callgsubr
          337 -34 callgsubr
          -215 -847 -105 callgsubr
          endchar
        </CharString>
        <CharString name="Omacron">
          58 callgsubr
          59 73 callgsubr
          253 782 -54 callgsubr
          -260 -793 -105 callgsubr
          endchar
        </CharString>
        <CharString name="Oslash">
          62 callgsubr
          hintmask 00000000
          hintmask 01101100
          158 15 -52 callsubr
        </CharString>
        <CharString name="Oslashacute">
          62 callgsubr
          hintmask 10101100
          264 716 -97 callsubr
          hintmask 01101100
          -274 -821 -52 callsubr
        </CharString>
        <CharString name="Otilde">
          -57 callgsubr
          228 754 -100 callsubr
          10 -813 -105 callgsubr
          endchar
        </CharString>
        <CharString name="P">
          -37 0 37 231 34 299 47 hstem
          423 87 vstem
          20 37 rmoveto
          -4 -37 rlineto
          232 hlineto
          3 37 -81 14 77 545 rlineto
          0 24 5 26 83 43 -29 -97 -93 -37 -80 -149 vhcurveto
          -34 16 vlineto
          158 99 78 141 106 -70 55 -134 hvcurveto
          -201 33 callgsubr
          -14 67 callgsubr
          endchar
        </CharString>
        <CharString name="Q">
          -57 callgsubr
          170 -112 rmoveto
          21 -26 55 25 172 -38 rlineto
          -6 27 25 -7 17 hhcurveto
          16 20 2 16 12 hvcurveto
          40 52 -21 23 -59 -28 -171 39 -17 4 -18 4 -15 2 rlinecurve
          39 41 rlineto
          201 21 92 192 198 vvcurveto
          163 -82 95 -157 -207 -116 -197 -215 -158 78 -97 143 -4 vhcurveto
          38 51 rmoveto
          -130 -38 72 161 199 62 137 149 124 45 -64 -153 -207 -54 -145 -158 hvcurveto
          endchar
        </CharString>
        <CharString name="R">
          -3 callsubr
          20 37 -59 callgsubr
          32 234 55 -6 14 -82 callgsubr
          hintmask 11011000
          -4 -37 rlineto
          hintmask 11101000
          -67 callsubr
          endchar
        </CharString>
        <CharString name="Racute">
          -3 callsubr
          233 716 -97 callsubr
          -381 -799 -59 callgsubr
          32 234 57 -6 12 -82 callgsubr
          hintmask 11011000
          -4 -37 rlineto
          hintmask 11101000
          -67 callsubr
          endchar
        </CharString>
        <CharString name="Rcaron">
          -3 callsubr
          189 797 -87 callsubr
          -204 -798 -59 callgsubr
          32 234 57 -6 12 -82 callgsubr
          hintmask 11011000
          -4 -37 rlineto
          hintmask 11101000
          -67 callsubr
          endchar
        </CharString>
        <CharString name="Rcommaaccent">
          -16 0 22 callsubr
          hstemhm
          254 71 87 86 hintmask 11101100
          20 37 -59 callgsubr
          32 234 57 -6 12 -82 callgsubr
          hintmask 11011100
          -4 -37 rlineto
          hintmask 11101100
          -67 callsubr
          9 -512 -92 callsubr
        </CharString>
        <CharString name="S">
          -97 6 callsubr
          -30 callsubr
          endchar
        </CharString>
        <CharString name="Sacute">
          -97 6 callsubr
          202 715 -97 callsubr
          -205 -846 -98 callsubr
          endchar
        </CharString>
        <CharString name="Sacute.loclPLK">
          -97 6 callsubr
          261 -23 callsubr
          -205 -864 -98 callsubr
          endchar
        </CharString>
        <CharString name="Scaron">
          -96 6 callsubr
          173 798 -87 callsubr
          -43 -847 -98 callsubr
          endchar
        </CharString>
        <CharString name="Scedilla">
          -97 -187 42 135 50 569 51 hstemhm
          73 76 -32 77 -2 68 55 76 hintmask 11110110
          88 -50 callsubr
          hintmask 11101010
          -34 21 rlineto
          19 vlineto
          125 10 72 72 113 vvcurveto
          hintmask 11110110
          144 -242 77 115 vvcurveto
          56 35 32 81 55 43 -19 0 vhcurveto
          8 -104 rlineto
          44 hlineto
          17 150 rlineto
          12 -32 -60 12 -60 hhcurveto
          -120 -87 -52 -118 hvcurveto
          -141 242 -74 -119 vvcurveto
          -70 -39 -46 -105 -61 -25 27 0 vhcurveto
          -11 111 rlineto
          -49 hlineto
          -16 -141 rlineto
          hintmask 11101010
          18 -18 58 -25 60 -4 -28 -39 rcurveline
          -20 vlineto
          hintmask 11110110
          -54 callsubr
        </CharString>
        <CharString name="Scircumflex">
          -97 6 callsubr
          161 728 -102 callgsubr
          -67 -792 -98 callsubr
          endchar
        </CharString>
        <CharString name="Scommaaccent">
          -97 16 callgsubr
          hstemhm
          73 76 -8 71 103 76 hintmask 11101000
          -30 callsubr
          hintmask 11011000
          -61 -173 -92 callsubr
        </CharString>
        <CharString name="T">
          -75 0 45 callgsubr
          34 481 hintmask 10110000
          94 37 -44 callgsubr
          endchar
        </CharString>
        <CharString name="Tbar">
          -75 0 37 274 52 121 164 -51 51 hstemhm
          34 481 hintmask 00000000
          hintmask 11101000
          487 484 rmoveto
          hintmask 11011000
          41 callgsubr
          -33 -234 rlineto
          -166 hlineto
          -8 -52 rlineto
          167 hlineto
          -37 -260 6 callgsubr
          37 260 rlineto
          174 hlineto
          8 52 rlineto
          -175 hlineto
          33 234 rlineto
          121 hlineto
          hintmask 11101000
          -7 -113 rlineto
          endchar
        </CharString>
        <CharString name="Tcaron">
          -75 0 45 callgsubr
          34 481 hintmask 10110000
          173 797 -87 callsubr
          -114 -798 -44 callgsubr
          endchar
        </CharString>
        <CharString name="Thorn">
          -62 0 37 121 40 259 47 107 37 hstem
          388 87 vstem
          19 37 -59 callgsubr
          16 113 rlineto
          -4 16 22 -2 33 hhcurveto
          106 113 57 136 111 -74 42 -108 hvcurveto
          -60 hlineto
          13 93 -22 callsubr
          100 152 rmoveto
          35 249 rlineto
          2 23 5 25 hhcurveto
          63 50 -16 -97 -93 -44 -53 -109 -18 -15 2 3 -12 hvcurveto
          endchar
        </CharString>
        <CharString name="U">
          88 callsubr
          126 597 -107 callgsubr
          endchar
        </CharString>
        <CharString name="Uacute">
          43 callgsubr
          286 726 -97 callsubr
          -328 -249 -107 callgsubr
          endchar
        </CharString>
        <CharString name="Ubreve">
          66 callsubr
          47 63 hstem
          72 81 vstem
          530 810 -94 callsubr
          -404 -213 -107 callgsubr
          endchar
        </CharString>
        <CharString name="Ucircumflex">
          43 callgsubr
          229 738 -102 callgsubr
          -174 -194 -107 callgsubr
          endchar
        </CharString>
        <CharString name="Udieresis">
          63 46 callsubr
          55 116 hstem
          72 81 62 106 105 106 vstem
          266 703 rmoveto
          -90 callsubr
          211 hmoveto
          -90 callsubr
          -351 -106 -107 callgsubr
          endchar
        </CharString>
        <CharString name="Ugrave">
          43 callgsubr
          281 745 -88 callsubr
          -155 -148 -107 callgsubr
          endchar
        </CharString>
        <CharString name="Uhorn">
          71 -11 -19 callgsubr
          485 66 vstem
          704 714 -98 callgsubr
          endchar
        </CharString>
        <CharString name="Uhungarumlaut">
          43 callgsubr
          331 -34 callgsubr
          -358 -239 -107 callgsubr
          endchar
        </CharString>
        <CharString name="Umacron">
          63 46 callsubr
          71 63 hstem
          72 81 vstem
          237 782 rmoveto
          -8 -63 rlineto
          281 hlineto
          9 63 rlineto
          -393 -185 -107 callgsubr
          endchar
        </CharString>
        <CharString name="Uogonek">
          63 -177 51 115 -19 callgsubr
          83 66 vstem
          416 -130 rmoveto
          -40 callgsubr
          44 35 31 22 14 vhcurveto
          105 34 44 94 20 148 43 317 rcurveline
          73 15 -51 callsubr
          -201 33 callgsubr
          -15 -44 -318 rlineto
          -146 -20 -41 -86 -111 hhcurveto
          -114 -27 43 93 26 2 32 5 38 hvcurveto
          45 319 73 -36 callsubr
          -219 33 callgsubr
          -14 -45 -318 rlineto
          -6 -41 -3 -39 -33 vvcurveto
          -108 59 -69 122 15 15 1 1 14 vhcurveto
          -38 -27 -23 -37 -41 -2 callsubr
          endchar
        </CharString>
        <CharString name="Uring">
          63 46 callsubr
          14 44 81 44 hstemhm
          72 81 134 51 76 52 hintmask 00000000
          hintmask 11111110
          287 729 -44 callsubr
          -212 -141 rmoveto
          -45 -318 rlineto
          -6 -41 -3 -39 -33 vvcurveto
          -108 59 -69 122 186 63 100 190 26 vhcurveto
          hintmask 11011110
          43 317 73 15 -51 callsubr
          -201 33 callgsubr
          -15 -44 -318 rlineto
          -146 -20 -41 -86 -111 hhcurveto
          -114 -27 43 93 26 2 32 5 38 hvcurveto
          45 319 73 -36 callsubr
          -219 -27 callgsubr
          rlineto
          endchar
        </CharString>
        <CharString name="Utilde">
          88 callsubr
          212 736 -100 callsubr
          -123 -187 -107 callgsubr
          endchar
        </CharString>
        <CharString name="V">
          -47 12 -21 620 37 hstemhm
          24 537 -535 135 hintmask 11100000
          77 599 rmoveto
          113 -608 rlineto
          42 hlineto
          273 605 51 15 5 37 rlineto
          -187 hlineto
          -5 -37 73 -15 rlineto
          -17 vlineto
          hintmask 11010000
          -200 -456 -81 450 -49 callgsubr
          -210 -27 callgsubr
          rlineto
          endchar
        </CharString>
        <CharString name="W">
          -10 callgsubr
          65 599 -79 callgsubr
        </CharString>
        <CharString name="Wacute">
          -10 callgsubr
          381 716 -97 callsubr
          -484 -237 -79 callgsubr
        </CharString>
        <CharString name="Wcircumflex">
          -10 callgsubr
          306 728 -102 callgsubr
          -312 -182 -79 callgsubr
        </CharString>
        <CharString name="Wdieresis">
          193 13 -21 619 37 55 116 hstemhm
          13 136 134 106 -80 136 49 106 hintmask 11111010
          334 703 rmoveto
          -90 callsubr
          211 hmoveto
          -90 callsubr
          -480 -104 rmoveto
          80 -607 rlineto
          44 hlineto
          203 438 69 -438 rlineto
          44 hlineto
          250 604 51 15 5 37 rlineto
          -187 hlineto
          -5 -37 73 -15 rlineto
          -17 vlineto
          hintmask 11110110
          -179 -468 -68 462 63 callsubr
          15 -84 -178 -404 -49 462 -49 callgsubr
          -211 -27 callgsubr
          rlineto
          endchar
        </CharString>
        <CharString name="Wgrave">
          -10 callgsubr
          351 735 -88 callsubr
          -286 -136 -79 callgsubr
        </CharString>
        <CharString name="X">
          -27 -17 callgsubr
          hstemhm
          -51 603 -216 154.5 hintmask 11100000
          -46 37 rmoveto
          -5 -37 rlineto
          195 hlineto
          4 37 -67 14 1 12 rlineto
          hintmask 11010000
          163 211 91 -199 rlineto
          -23 vlineto
          -64 -15 -3 -37 rlineto
          220 hlineto
          3 37 -58 12 -132 296 197 252 48 14 5 37 rlineto
          -187 hlineto
          -5 -37 67 -14 rlineto
          -12 vlineto
          -147 -190 -82 185 rlineto
          16 vlineto
          73 15 -51 callsubr
          -226 -27 callgsubr
          54 -13 123 -273 -212 -274 rlineto
          endchar
        </CharString>
        <CharString name="Y">
          3 callsubr
          108 37 -75 callsubr
          hintmask 11010000
          -62 callsubr
          endchar
        </CharString>
        <CharString name="Y.loclGUA">
          21 callsubr
          400 648 -101 callsubr
        </CharString>
        <CharString name="Yacute">
          -67 -17 callgsubr
          hstemhm
          20 510 -508 136 hintmask 11100000
          218 726 -97 callsubr
          -283 -809 5 callgsubr
          hintmask 11010000
          32 callgsubr
        </CharString>
        <CharString name="Yacute.loclGUA">
          21 callsubr
          320 716 -97 callsubr
          -88 -188 -101 callsubr
        </CharString>
        <CharString name="Ycircumflex">
          3 callsubr
          175 728 -102 callgsubr
          -138 -744 -75 callsubr
          hintmask 11010000
          -62 callsubr
          endchar
        </CharString>
        <CharString name="Ycircumflex.loclGUA">
          21 callsubr
          245 728 -102 callgsubr
          84 -133 -101 callsubr
        </CharString>
        <CharString name="Ydieresis">
          -67 -17 callgsubr
          55 116 hstemhm
          22 136 -11 106 105 106 hintmask 11101100
          198 703 rmoveto
          -90 callsubr
          211 hmoveto
          -90 callsubr
          -306 -666 5 callgsubr
          hintmask 11110100
          32 callgsubr
        </CharString>
        <CharString name="Ydieresis.loclGUA">
          7 callgsubr
          55 116 hstem
          99 89 34 106 105 106 vstem
          273 703 rmoveto
          -90 callsubr
          211 hmoveto
          -90 callsubr
          -84 -55 -101 callsubr
        </CharString>
        <CharString name="Ygrave">
          3 callsubr
          220 735 -88 callsubr
          -112 -698 -75 callsubr
          hintmask 11010000
          -62 callsubr
          endchar
        </CharString>
        <CharString name="Ygrave.loclGUA">
          21 callsubr
          290 735 -88 callsubr
          110 -87 -101 callsubr
        </CharString>
        <CharString name="Z">
          -57 -7 callgsubr
          hstemhm
          -9 507 hintmask 10011000
          -9 44 -81 callgsubr
          endchar
        </CharString>
        <CharString name="Zacute">
          -57 -7 callgsubr
          hstemhm
          -13 507 hintmask 10011000
          214 716 -97 callsubr
          -395 -792 -81 callgsubr
          endchar
        </CharString>
        <CharString name="Zacute.loclPLK">
          -57 -7 callgsubr
          hstemhm
          -9 507 hintmask 10011000
          281 -23 callsubr
          -399 -809 -81 callgsubr
          endchar
        </CharString>
        <CharString name="Zcaron">
          -57 -7 callgsubr
          hstemhm
          -13 507 hintmask 10011000
          182 797 -87 callsubr
          -230 -791 -81 callgsubr
          endchar
        </CharString>
        <CharString name="Zdotaccent">
          -57 -7 callgsubr
          51 118 hstemhm
          231 112 hintmask 10011100
          282 -37 callgsubr
          -295 -655 rmoveto
          17 -44 rlineto
          415 hlineto
          hintmask 01011100
          20 149 rlineto
          -44 hlineto
          hintmask 10011100
          -41 -104 rlineto
          -258 hlineto
          -5 12 403 547 -26 44 rlineto
          -388 hlineto
          hintmask 10101100
          -22 -152 rlineto
          44 hlineto
          hintmask 10011100
          41 104 rlineto
          228 hlineto
          12 -22 rlineto
          endchar
        </CharString>
        <CharString name="a">
          -53 -55 callsubr
          307 106 18 callsubr
          hintmask 01011100
          -99 callgsubr
          hintmask 10101100
          -47 callsubr
          endchar
        </CharString>
        <CharString name="aacute">
          -50 -55 callsubr
          237 591 -95 callsubr
          -69 -627 18 callsubr
          hintmask 01011100
          -99 callgsubr
          hintmask 10101100
          -25 -35 rlineto
          6 -11 -53 25 -104 callgsubr
          endchar
        </CharString>
        <CharString name="abreve">
          -50 -9 2 callgsubr
          43 63 63 152 hintmask 10101111
          447 697 rmoveto
          -21 18 rlineto
          -80 callgsubr
          -29 callsubr
          -140 -591 18 callsubr
          hintmask 01011111
          -99 callgsubr
          hintmask 10101111
          -25 -35 rlineto
          6 -11 -53 25 -104 callgsubr
          endchar
        </CharString>
        <CharString name="acircumflex">
          -50 -55 callsubr
          266 690 -104 callsubr
          41 -584 18 callsubr
          hintmask 01011100
          -99 callgsubr
          hintmask 10101100
          -25 -35 rlineto
          6 -11 -53 25 -104 callgsubr
          endchar
        </CharString>
        <CharString name="acute">
          -345 559 174 hstem
          64 181 vstem
          64 591 -95 callsubr
          endchar
        </CharString>
        <CharString name="acutecomb">
          559 174 hstem
          -138 181 vstem
          -138 591 -95 callsubr
          endchar
        </CharString>
        <CharString name="acutecomb.case">
          681 155 hstem
          -127 202 vstem
          -127 716 -97 callsubr
          endchar
        </CharString>
        <CharString name="adieresis">
          60 callgsubr
          97 112 hstemhm
          40 83 25 108 36 152 -110 108 hintmask 0000000000000000
          hintmask 1010111010000000
          148 637 -97 callgsubr
          hintmask 1010110100000000
          -27 -531 18 callsubr
          hintmask 0101110100000000
          -99 callgsubr
          hintmask 1010110100000000
          39 callsubr
          hintmask 1010110000000000
          -79 callsubr
        </CharString>
        <CharString name="ae">
          70 callsubr
          596 65 -56 callgsubr
        </CharString>
        <CharString name="aeacute">
          70 callsubr
          377 591 -95 callsubr
          80 -668 -56 callgsubr
        </CharString>
        <CharString name="agrave">
          -50 -55 callsubr
          253 624 -88 callgsubr
          54 -518 18 callsubr
          hintmask 01011100
          -99 callgsubr
          hintmask 10101100
          -25 -35 rlineto
          6 -11 -53 25 -104 callgsubr
          endchar
        </CharString>
        <CharString name="amacron">
          60 callgsubr
          117 63 -7 callsubr
          hintmask 10101110
          169 677 -54 callgsubr
          -144 -571 18 callsubr
          hintmask 01011110
          -99 callgsubr
          hintmask 10101110
          -25 -35 rlineto
          6 -11 -53 25 -104 callgsubr
          endchar
        </CharString>
        <CharString name="ampersand">
          64 -11 51 557 52 hstemhm
          30 81 -10 72 198 68 3 63 -44 47 hintmask 00000000
          hintmask 11100010
          458 -14 rmoveto
          6 -75 rlineto
          40 hlineto
          8 71 rlineto
          hintmask 11100100
          1 10 1 10 9 vvcurveto
          16 -3 10 -10 13 vhcurveto
          -52 64 rlineto
          38 60 18 75 71 vvcurveto
          10 0 10 -1 8 vhcurveto
          -9 35 8 0 18 hhcurveto
          22 22 9 20 18 hvcurveto
          39 44 -19 26 -73 -37 rlineto
          hintmask 11011000
          -130 23 -27 4 rlineto
          -5 hlineto
          16 25 11 30 38 vvcurveto
          77 -69 51 -82 -106 -81 -84 -85 -60 26 -34 41 -49 vhcurveto
          hintmask 11100010
          -43 -24 -95 -68 -113 vvcurveto
          -105 83 -38 108 76 59 25 41 45 vhcurveto
          hintmask 11010100
          13 102 rmoveto
          -180 223 rlineto
          -44 54 -17 28 38 vvcurveto
          49 39 48 66 vhcurveto
          hintmask 11101000
          68 25 -39 -49 -63 -8 -17 -66 -64 hvcurveto
          18 -26 rlineto
          hintmask 11100100
          76 36 48 -12 rlineto
          1 -11 2 -29 -30 vvcurveto
          hintmask 11010100
          -54 -10 -45 -18 -37 vhcurveto
          hintmask 11100100
          -221 149 rmoveto
          176 -213 rlineto
          -35 -36 -45 -18 -46 hhcurveto
          -104 -27 47 60 98 56 45 26 16 hvcurveto
          endchar
        </CharString>
        <CharString name="aogonek">
          -50 -177 51 117 55 callsubr
          155 66 -52 152 hintmask 11010110
          458 -130 rmoveto
          -40 callgsubr
          vhcurveto
          hintmask 10110110
          52 52 36 16 8 vhcurveto
          hintmask 10101101
          17 9 15 7 1 vvcurveto
          39 -73 vlineto
          71 451 rlineto
          -38 hlineto
          hintmask 11010101
          39 callsubr
          3 -2 rlineto
          hintmask 10110101
          -12 -25 -6 -17 -16 vvcurveto
          -27 8 -22 47 -1 vhcurveto
          hintmask 11010110
          -42 -28 -27 -39 -43 -2 callsubr
          -105 540 rmoveto
          -44 -256 rlineto
          -41 -28 -52 -63 -47 hhcurveto
          -49 -10 44 77 107 30 106 41 57 hvcurveto
          7 5 9 5 19 hhcurveto
          48 44 -20 -23 34 hvcurveto
          endchar
        </CharString>
        <CharString name="approxequal">
          -17 147 246 hstem
          67 396 vstem
          67 325 1 callgsubr
          -31 -193 1 callgsubr
          endchar
        </CharString>
        <CharString name="aring">
          60 callgsubr
          67 44 92 46 hstemhm
          40 83 107 52 10 152 -85 53 hintmask 1010111101000000
          230 635 -62 callgsubr
          hintmask 1010111110000000
          25 -539 18 callsubr
          hintmask 0101111110000000
          -99 callgsubr
          hintmask 1010111110000000
          39 callsubr
          hintmask 1010111101000000
          -79 callsubr
        </CharString>
        <CharString name="aringacute">
          8 callsubr
          67 44 92 46 hstemhm
          40 83 91 52 26 152 -101 53 hintmask 1010111101000000
          278 843 -95 callsubr
          -203 -350 -62 callgsubr
          hintmask 1010111110000000
          41 -539 18 callsubr
          hintmask 0101111110000000
          -99 callgsubr
          hintmask 1010111110000000
          -25 -35 rlineto
          5 -10 -54 26 -50 hhcurveto
          -162 -63 -266 -97 -97 33 -62 85 61 57 60 55 31 hvcurveto
          hintmask 1010111101000000
          -79 callsubr
        </CharString>
        <CharString name="asciicircum">
          -17 573 76 0 -20 hstemhm
          45 443 hintmask 01100000
          283 649 rmoveto
          -238 -387 rlineto
          73 hlineto
          hintmask 10100000
          190 311 106 -311 rlineto
          74 hlineto
          -143 387 rlineto
          endchar
        </CharString>
        <CharString name="asciitilde">
          -17 229 106 hstem
          74 382 vstem
          74 258 rmoveto
          21 -26 75 33 101 -23 rlineto
          -8 33 20 -5 35 hhcurveto
          23 22 9 20 16 hvcurveto
          36 47 -20 28 -76 -35 -101 23 rlineto
          7 -33 -33 7 -25 hhcurveto
          -26 -18 -11 -20 -15 hvcurveto
          endchar
        </CharString>
        <CharString name="asterisk">
          -163 509 -20 168 -20 hstem
          163 77 vstem
          240 712 rmoveto
          -24 hlineto
          -47 -6 -21 -20 -14 6 -15 5 -14 hvcurveto
          26 -78 40 14 rlineto
          162 37 rmoveto
          42 -8 -8 14 -19 hhcurveto
          -23 -17 -20 -15 -18 hvcurveto
          -69 -58 21 -33 rlineto
          -206 43 rmoveto
          -12 -23 -6 -17 -11 vvcurveto
          -23 21 -4 14 10 18 2 1 10 vhcurveto
          85 10 5 41 rlineto
          131 -59 rmoveto
          -70 40 -27 -34 95 -104 rlineto
          34 21 14 15 16 vvcurveto
          22 -28 13 -18 11 vhcurveto
          -218 -117 rmoveto
          -18 21 14 -9 12 hhcurveto
          34 7 44 23 7 hvcurveto
          26 83 -39 12 rlineto
          endchar
        </CharString>
        <CharString name="at">
          215 -108 57 108 52 -46 65 254 57 -21 32 123 56 hstemhm
          26 75 111 71 385 71 hintmask 1101011110000000
          586 -39 rmoveto
          -15 27 rlineto
          1 -111 -40 -93 -162 -104 85 194 259 192 86 138 134 103 -67 -181 -150 -53 -66 -61 -31 -21 18 32 4 1 13 2 12 vhcurveto
          hintmask 1100111110000000
          43 262 rlineto
          -34 hlineto
          -28 -32 rlineto
          hintmask 1011011110000000
          0 -50 21 -42 -133 -49 -157 -83 -83 40 -53 67 64 57 67 0 vhcurveto
          hintmask 1101011110000000
          -55 14 51 -18 39 hhcurveto
          118 77 112 176 151 -105 133 -193 -236 -179 -205 -202 -200 124 -130 198 145 93 68 1 hvcurveto
          -122 396 rmoveto
          hintmask 1011011110000000
          -32 -189 rlineto
          0 -43 -40 -46 -36 -24 26 72 53 22 72 19 21 vhcurveto
          7 6 28 3 24 hhcurveto
          hintmask 1101011110000000
          43 39 -25 0 hvcurveto
          endchar
        </CharString>
        <CharString name="atilde">
          -50 -55 callsubr
          201 663 -102 callsubr
          106 -557 18 callsubr
          hintmask 01011100
          -99 callgsubr
          hintmask 10101100
          -25 -35 rlineto
          6 -11 -53 25 -104 callgsubr
          endchar
        </CharString>
        <CharString name="b">
          -77 -9 59 394 69 hstem
          64 150 144 82 vstem
          143 627 rmoveto
          -105 -594 77 -27 rlineto
          0 45 -15 51 87 callsubr
          -69 -60 -69 -26 -19 vhcurveto
          -2 3 6 8 9 12 1 9 rlinecurve
          28 177 rlineto
          72 vlineto
          -150 -19 rlineto
          -37 vlineto
          62 -565 rmoveto
          48 307 rlineto
          19 21 50 40 54 callsubr
          -57 -42 18 10 -19 hvcurveto
          endchar
        </CharString>
        <CharString name="backslash">
          -247 -167 862 hstem
          -69 425 vstem
          -69 668 rmoveto
          363 -835 62 27 -365 835 rlineto
          endchar
        </CharString>
        <CharString name="bar">
          62 callsubr
          -855 60 855 vlineto
          endchar
        </CharString>
        <CharString name="braceleft">
          -340 -151 850 hstemhm
          13 74 3 71 89 callgsubr
          121 -151 rmoveto
          22 42 rlineto
          -40 24 -16 14 37 vvcurveto
          9 0 11 3 12 vhcurveto
          hintmask 10100000
          46 212 rlineto
          1 4 1 10 4 vvcurveto
          42 -37 11 -6 2 vhcurveto
          5 1 47 12 8 54 12 200 rcurveline
          9 62 17 16 60 30 -13 41 rcurveline
          -80 -15 -70 -65 -84 vvcurveto
          -207 vlineto
          hintmask 11000000
          -64 -27 rlineto
          -37 vlineto
          52 -24 -59 -220 rlineto
          -2 -9 -4 -21 -8 vvcurveto
          -69 45 -44 63 -20 vhcurveto
          endchar
        </CharString>
        <CharString name="braceright">
          -340 657 -20 hstemhm
          47 71 3 74 hintmask 11000000
          -45 -110 rmoveto
          13 -41 rlineto
          80 15 70 65 84 vvcurveto
          207 vlineto
          hintmask 10100000
          64 27 rlineto
          37 vlineto
          -52 24 59 220 rlineto
          2 9 4 21 8 vvcurveto
          69 -45 44 -63 20 vhcurveto
          -22 -42 rlineto
          40 -24 16 -14 -37 vvcurveto
          -9 0 -11 -3 -12 vhcurveto
          hintmask 11000000
          -46 -212 rlineto
          -1 -4 -1 -10 -4 vvcurveto
          -43 36 -11 7 -1 vhcurveto
          -6 -1 -47 -12 -7 -54 -12 -200 rcurveline
          -9 -62 -17 -16 -60 -30 rrcurveto
          endchar
        </CharString>
        <CharString name="bracketleft">
          -323 -151 43 764 43 hstem
          5 278 vstem
          125 699 rmoveto
          -120 -850 rlineto
          136 hlineto
          28 43 -87 12 105 740 90 12 6 43 rlineto
          endchar
        </CharString>
        <CharString name="bracketright">
          -323 -151 43 752 55 -43 -20 hstemhm
          -63 278 hintmask 10110000
          -57 -108 rmoveto
          -6 -43 rlineto
          158 hlineto
          hintmask 11010000
          120 850 rlineto
          -158 hlineto
          -6 -43 86 -12 -105 -740 rlineto
          endchar
        </CharString>
        <CharString name="breve">
          -255 568 60 hstemhm
          67 63 -63 281 hintmask 10100000
          348 697 rmoveto
          -21 18 rlineto
          hintmask 11000000
          -80 callgsubr
          hvcurveto
          hintmask 10100000
          43 callsubr
        </CharString>
        <CharString name="brokenbar">
          62 callsubr
          -365 60 365 vlineto
          -60 -490 rmoveto
          -365 60 365 vlineto
          endchar
        </CharString>
        <CharString name="bullet">
          -134 192 227 hstem
          90 227 vstem
          90 305 rmoveto
          -63 50 -50 63 63 51 50 63 63 -51 51 -63 -63 -50 -51 -63 vhcurveto
          endchar
        </CharString>
        <CharString name="c">
          13 callgsubr
          327 64 -78 callgsubr
        </CharString>
        <CharString name="cacute">
          13 callgsubr
          185 591 -95 callsubr
          3 -669 -78 callgsubr
        </CharString>
        <CharString name="cacute.loclPLK">
          13 callgsubr
          238 -23 callgsubr
          -12 -681 -78 callgsubr
        </CharString>
        <CharString name="caron">
          -268 649 -20 hstem
          69 267 vstem
          69 696 -89 callsubr
          endchar
        </CharString>
        <CharString name="ccaron">
          -172 -9 63 399 60 136 -20 hstem
          30 82 189 74 vstem
          129 696 -89 callsubr
          165 -667 -78 callgsubr
        </CharString>
        <CharString name="ccedilla">
          -172 -187 42 137 62 -41 -21 22 -21 460 60 hstemhm
          30 82 -7 77 -2 68 53 74 hintmask 1001110110000000
          76 -129 rmoveto
          -20 -29 rlineto
          -13 17 28 -16 39 hhcurveto
          47 61 14 75 hvcurveto
          hintmask 1010110110000000
          22 -14 15 -18 11 vhcurveto
          hintmask 1010101010000000
          -34 21 rlineto
          21 vlineto
          hintmask 1100110110000000
          94 6 51 66 0 vvcurveto
          -21 33 rlineto
          0 -54 -43 -45 -67 -28 56 callgsubr
          58 105 42 callgsubr
          61 -39 25 -72 -156 -78 -192 -170 vhcurveto
          hintmask 1001110110000000
          -98 33 -50 73 -10 vhcurveto
          hintmask 1001101010000000
          -31 -42 rlineto
          -20 vlineto
          hintmask 1001110110000000
          -54 callsubr
        </CharString>
        <CharString name="ccircumflex">
          13 callgsubr
          235 690 -104 callsubr
          92 -626 -78 callgsubr
        </CharString>
        <CharString name="cdotaccent">
          -172 -9 63 399 60 78 118 hstemhm
          30 82 109 112 -32 74 hintmask 00000000
          hintmask 11111000
          272 -66 callsubr
          55 -527 rmoveto
          -21 33 rlineto
          0 -54 -43 -45 -67 -28 56 callgsubr
          58 105 7 5 vhcurveto
          hintmask 11010100
          10 13 22 3 20 hhcurveto
          44 21 -8 0 hvcurveto
          8 -98 rlineto
          25 hlineto
          0 45 25 55 vvcurveto
          61 -39 25 -72 -156 -78 -192 -170 -111 42 -49 95 vhcurveto
          hintmask 11111000
          104 56 73 0 hvcurveto
          endchar
        </CharString>
        <CharString name="cedilla">
          -348 -187 42 hstemhm
          -1 77 -2 68 hintmask 10100000
          -30 -50 callsubr
          hintmask 11000000
          -34 21 rlineto
          29 -41 vlineto
          -36 -49 rlineto
          -20 vlineto
          hintmask 10100000
          -54 callsubr
        </CharString>
        <CharString name="cent">
          -127 58 61 417 58 hstemhm
          46 82 211 74 hintmask 00000000
          hintmask 11110000
          152 58 rmoveto
          -11 -105 47 -8 -25 callsubr
          -101 30 -49 76 -8 vhcurveto
          endchar
        </CharString>
        <CharString name="cent.osf">
          -127 -7 61 -40 -21 478 58 hstemhm
          38 82 211 74 hintmask 01111000
          144 -7 rmoveto
          -11 -105 47 -8 rlineto
          hintmask 10111000
          -25 callsubr
          hintmask 01111000
          -101 30 -49 76 -8 vhcurveto
          endchar
        </CharString>
        <CharString name="circumflex">
          -268 562 169 hstem
          54 269 vstem
          157 690 -104 callsubr
          endchar
        </CharString>
        <CharString name="colon">
          -326 -11 123 -102 -21 333 123 hstemhm
          18 116 -73 116 hintmask 00000000
          hintmask 01101000
          109 322 -45 callgsubr
          hintmask 01110000
          -43 -333 rmoveto
          44 24 38 37 hvcurveto
          hintmask 10110000
          28 -19 20 -30 -40 -27 -37 -38 vhcurveto
          hintmask 01110000
          -28 20 -20 28 vhcurveto
          endchar
        </CharString>
        <CharString name="comma">
          -363 84 callsubr
          hstemhm
          -5 120 hintmask 00110000
          53 4 callgsubr
        </CharString>
        <CharString name="copyright">
          95 -1 53 103 50 12 53 174 51 101 55 hstemhm
          6 63 102 71 168 33 -28 31 152 60 hintmask 1101111011000000
          6 325 rmoveto
          -180 146 -146 180 180 146 146 180 180 -146 146 -180 -180 -146 -146 -180 vhcurveto
          326 -273 rmoveto
          -152 -111 122 150 150 111 122 152 151 115 -122 -150 -150 -115 -122 -151 hvcurveto
          hintmask 1111111011000000
          83 218 rmoveto
          -10 -53 rlineto
          hintmask 1101111011000000
          0 -12 -12 -51 -64 -36 28 89 98 30 24 69 vhcurveto
          hintmask 1101111101000000
          39 20 -6 0 hvcurveto
          10 -52 rlineto
          33 94 hlineto
          9 -22 -43 6 -43 hhcurveto
          -103 -61 -80 -92 -108 49 -60 107 hvcurveto
          hintmask 1101111011000000
          61 38 13 9 20 hvcurveto
          hintmask 1111111011000000
          93 vlineto
          endchar
        </CharString>
        <CharString name="currency">
          -17 115 73 257 72 hstem
          64 72 258 72 vstem
          106 191 rmoveto
          -87 -91 37 -37 92 88 rlineto
          -23 33 40 -13 44 hhcurveto
          46 42 15 26 34 hvcurveto
          97 -93 37 37 -94 97 rlineto
          24 33 15 41 45 vvcurveto
          43 -14 40 -23 32 vhcurveto
          92 96 -37 37 -95 -90 rlineto
          27 -34 -43 16 -47 hhcurveto
          -45 -41 -15 -24 -33 hvcurveto
          -90 86 -37 -37 85 -89 rlineto
          -25 -34 -15 -42 -46 vvcurveto
          -47 16 -44 26 -34 vhcurveto
          30 125 rmoveto
          69 60 60 69 69 60 -60 -69 -69 -60 -59 -69 -69 -60 59 69 vhcurveto
          endchar
        </CharString>
        <CharString name="d">
          -46 -9 59 -54 70 387 60 36 callgsubr
          hintmask 00000000
          hintmask 10111000
          314 105 18 callsubr
          hintmask 01111000
          -26 callsubr
          hintmask 01110100
          -55 callgsubr
          hintmask 10110100
          77 callgsubr
          hintmask 10111000
          58 callsubr
          hintmask 10110100
          46 306 -65 callgsubr
          endchar
        </CharString>
        <CharString name="dagger">
          -113 442.5 51.5 hstem
          207 34 vstem
          159 313 rmoveto
          -45 -423 rlineto
          52 hlineto
          75 423 rlineto
          133 vlineto
          116 59 callgsubr
          -87 -175 -171 hlineto
          -10 -134 rlineto
          40 hlineto
          17 79 111 7 rlineto
          endchar
        </CharString>
        <CharString name="daggerdbl">
          -113 64 51.5 327 51.5 hstemhm
          167 45 9 45 hintmask 11100000
          160 64 rmoveto
          -43 -175 rlineto
          95 175 162 hlineto
          11 134 rlineto
          hintmask 11110000
          -39 hlineto
          -14 -79 -113 -7 47 167 rlineto
          167 vlineto
          111 59 callgsubr
          -93 -175 -165 hlineto
          -10 -134 rlineto
          hintmask 11100000
          40 hlineto
          17 79 111 7 -47 -167 rlineto
          -167 vlineto
          -109 7 5 79 rlineto
          -40 hlineto
          -28 -134 rlineto
          endchar
        </CharString>
        <CharString name="dcaron">
          -46 -9 59 -54 70 387 60 36 callgsubr
          48 71 hintmask 10110110
          487 19 callgsubr
          hintmask 10111010
          -173 -464 18 callsubr
          hintmask 01111010
          -26 callsubr
          hintmask 01110110
          -55 callgsubr
          hintmask 10110110
          77 callgsubr
          hintmask 10111010
          58 callsubr
          hintmask 10110110
          46 306 -65 callgsubr
          endchar
        </CharString>
        <CharString name="dcroat">
          -46 -9 59 -54 70 387 60 52 48 hstemhm
          40 82 176 153 -105 122 hintmask 00000000
          hintmask 10111100
          314 105 18 callsubr
          hintmask 01111100
          -26 callsubr
          hintmask 01111010
          -73 hlineto
          80 499 rlineto
          66 48 -58 59 callsubr
          -168 -48 160 hlineto
          -14 -77 rlineto
          10 -20 -40 15 -45 hhcurveto
          -149 -80 -237 -126 hvcurveto
          hintmask 10111010
          77 callgsubr
          hintmask 10111100
          58 callsubr
          hintmask 10111010
          46 306 -65 callgsubr
          endchar
        </CharString>
        <CharString name="degree">
          -309 474 43 105 45 hstem
          21 44 105 44 vstem
          109 474 rmoveto
          57 48 47 58 50 -37 38 -51 -57 -48 -48 -57 -50 36 -38 52 hvcurveto
          4 43 rmoveto
          -28 -20 21 27 32 27 25 30 28 20 -20 -27 -32 -24 -26 -33 hvcurveto
          endchar
        </CharString>
        <CharString name="dieresis">
          -243 594 112 hstemhm
          61 76 callsubr
          hintmask 00000000
          hintmask 11100000
          61 637 -97 callgsubr
          endchar
        </CharString>
        <CharString name="divide">
          -17 39 123 78 59 73 123 hstemhm
          181 116 -70 116 hintmask 00000000
          hintmask 01101000
          275 372 -45 callgsubr
          -212 -73 60 callsubr
          hintmask 11010000
          -234 -260 -45 callgsubr
          endchar
        </CharString>
        <CharString name="dollar">
          -67 -115 157 -51 51 553 148 hstemhm
          100 76 162 76 hintmask 01111000
          290 595 rmoveto
          58 42 -19 0 hvcurveto
          8 -104 rlineto
          44 hlineto
          17 150 -26 10 -44 9 -45 4 rlinecurve
          8 98 rlineto
          -54 hlineto
          -16 -98 rlineto
          -108 -8 -74 -57 -92 -165 238 -35 -137 vvcurveto
          -56 -39 -53 -99 -71 -21 27 0 vhcurveto
          -11 111 rlineto
          -49 hlineto
          -16 -141 19 -18 55 -26 72 -4 rlinecurve
          hintmask 10111000
          -9 -106 rlineto
          53 hlineto
          17 109 rlineto
          110 16 65 77 87 165 -238 46 126 vvcurveto
          hintmask 01111000
          49 35 35 79 vhcurveto
          endchar
        </CharString>
        <CharString name="dollar.osf">
          -67 -117 168 -59 59 415 64 -22 -20 hstemhm
          86 75 168 80 hintmask 01011100
          187 -8 rmoveto
          hintmask 10101100
          -10 -109 rlineto
          53 hlineto
          18 112 rlineto
          76 11 85 36 117 152 -248 -35 116 vvcurveto
          50 20 24 97 52 37 -15 0 vhcurveto
          7 -72 rlineto
          41 hlineto
          hintmask 01011100
          16 129 rlineto
          hintmask 01101100
          -16 7 -52 12 -49 3 9 107 rcurveline
          -54 hlineto
          -18 -109 rlineto
          -98 -15 -67 -55 -94 -155 243 30 -104 vvcurveto
          -69 -19 -15 -97 -56 -37 20 5 -8 vhcurveto
          -4 85 rlineto
          -45 hlineto
          -15 -128 rlineto
          hintmask 01011100
          20 -20 61 -18 58 -3 rrcurveto
          endchar
        </CharString>
        <CharString name="dotaccent">
          -425 591 118 hstem
          61 112 vstem
          112 -66 callsubr
          endchar
        </CharString>
        <CharString name="dotbelowcomb">
          -18 callsubr
          hstem
          -167 112 vstem
          -116 -166 -105 callsubr
          endchar
        </CharString>
        <CharString name="dotlessi">
          -15 callgsubr
          hintmask 00000000
          hintmask 11010000
          136 434 rmoveto
          -85 callgsubr
          hintmask 11100000
          -73 callsubr
        </CharString>
        <CharString name="e">
          -159 -29 callgsubr
          343 68 -107 callsubr
          endchar
        </CharString>
        <CharString name="eacute">
          -158 -29 callgsubr
          187 591 -95 callsubr
          17 -665 -107 callsubr
          endchar
        </CharString>
        <CharString name="ebreve">
          65 callgsubr
          55 60 hstemhm
          40 81 10 63 108 76 hintmask 11110100
          412 697 rmoveto
          -21 18 rlineto
          hintmask 11111100
          -80 callgsubr
          hvcurveto
          hintmask 11110100
          -29 callsubr
          -69 -629 -107 callsubr
          endchar
        </CharString>
        <CharString name="ecaron">
          65 callsubr
          136 -20 hstem
          40 81 181 76 vstem
          144 696 -89 callsubr
          166 -663 -107 callsubr
          endchar
        </CharString>
        <CharString name="ecircumflex">
          -158 -29 callgsubr
          224 690 -104 callsubr
          119 -622 -107 callsubr
          endchar
        </CharString>
        <CharString name="edieresis">
          65 callsubr
          81 112 hstemhm
          40 81 -13 76 callsubr
          -100 76 hintmask 00000000
          hintmask 11101100
          108 637 -97 callgsubr
          49 -569 44 callgsubr
          hintmask 11010100
          0 -56 -46 -50 -75 -22 30 109 vhcurveto
          4 1 4 6 vvcurveto
          hintmask 11010010
          -24 callsubr
          hintmask 11101100
          99 57 77 0 hvcurveto
          hintmask 11010010
          -33 callgsubr
        </CharString>
        <CharString name="edotaccent">
          65 callsubr
          78 118 hstemhm
          40 81 96 112 -27 76 hintmask 00000000
          hintmask 11111000
          268 -66 callsubr
          75 -523 14 callsubr
          hintmask 11010100
          -24 callsubr
          hintmask 11111000
          99 57 77 0 hvcurveto
          hintmask 11010100
          -33 callgsubr
        </CharString>
        <CharString name="egrave">
          -158 -29 callgsubr
          221 624 -88 callgsubr
          122 -556 -107 callsubr
          endchar
        </CharString>
        <CharString name="eight">
          -77 -11 51 570 50 hstemhm
          22 83 -21 75 175 75 -73 73 hintmask 11010100
          189 333 rmoveto
          hintmask 11100100
          -89 -44 -78 -76 -88 vvcurveto
          -63 54 -73 115 154 64 110 73 75 -36 38 -81 66 vhcurveto
          72 41 67 59 89 vvcurveto
          67 -57 53 -104 vhcurveto
          hintmask 11010100
          -95 -91 -67 -87 -65 36 -52 69 -56 hvcurveto
          76 39 rmoveto
          -75 67 -31 36 51 vvcurveto
          62 39 22 65 74 21 -35 -51 -66 -42 -56 -51 -30 vhcurveto
          -48 -60 rmoveto
          hintmask 11011000
          67 -60 50 -34 -62 vvcurveto
          -76 -42 -40 -78 vhcurveto
          hintmask 11100100
          -85 -24 46 52 56 21 66 91 52 hvcurveto
          endchar
        </CharString>
        <CharString name="eight.osf">
          -67 -10 50 568 53 hstemhm
          39 82 -15 75 178 71 -50 70 hintmask 11010100
          208 336 rmoveto
          hintmask 11101000
          -83 -37 -86 -78 -91 vvcurveto
          -80 51 -60 127 157 56 106 95 59 -52 49 -66 52 vhcurveto
          hintmask 11010100
          75 33 63 50 95 vvcurveto
          73 -47 59 -122 -89 -86 -58 -110 -63 33 -38 69 -56 vhcurveto
          75 38 rmoveto
          -2 1 -2 2 -2 2 rrcurveto
          -68 53 -28 32 55 vvcurveto
          67 47 22 56 64 32 -43 -51 -80 -46 -30 -51 -30 vhcurveto
          hintmask 11101000
          -46 -62 rmoveto
          50 -40 72 -49 -57 vvcurveto
          -82 -51 -44 -66 -85 -36 33 73 52 25 62 91 52 vhcurveto
          endchar
        </CharString>
        <CharString name="ellipsis">
          6 -11 126 hstemhm
          -7 119 62 119 62 119 hintmask 00000000
          hintmask 11110000
          42 -11 rmoveto
          25 callsubr
          181 hmoveto
          25 callsubr
          181 hmoveto
          25 callsubr
          endchar
        </CharString>
        <CharString name="emacron">
          65 callsubr
          101 63 hstem
          40 81 181 76 vstem
          128 677 -54 callgsubr
          -67 -609 -107 callsubr
          endchar
        </CharString>
        <CharString name="emdash">
          473 237 59 hstem
          10 1000 vstem
          10 296 rmoveto
          -59 1000 59 vlineto
          endchar
        </CharString>
        <CharString name="endash">
          -37 237 59 hstem
          5 500 vstem
          5 296 rmoveto
          -59 500 59 vlineto
          endchar
        </CharString>
        <CharString name="eng">
          -30 -167 76 112 -21 445 68 -6 -20 hstemhm
          57 151 177 76 hintmask 11101100
          370 513 rmoveto
          -62 -76 -55 -19 -24 hvcurveto
          hintmask 11011100
          68 -27 callsubr
          28 callgsubr
          hintmask 11101100
          62 396 rlineto
          11 17 60 38 57 hhcurveto
          41 9 -17 -29 -12 -2 -14 -4 -25 hvcurveto
          -16 -105 -18 -119 -19 -120 27 callsubr
          rrcurveto
          24 callgsubr
          94 64 140 21 hvcurveto
          46 306 rlineto
          3 20 6 32 27 vvcurveto
          50 -22 41 -69 vhcurveto
          endchar
        </CharString>
        <CharString name="eogonek">
          -158 -177 51 117 60 402 60 hstemhm
          40 81 16 66 99 76 hintmask 11110100
          317 -130 rmoveto
          hintmask 11111100
          -40 callgsubr
          52 52 35 16 9 vhcurveto
          45 23 27 34 1 vvcurveto
          -19 29 rlineto
          hintmask 11110100
          0 -56 -46 -50 -75 -22 30 109 vhcurveto
          4 1 4 6 vvcurveto
          -24 callsubr
          hintmask 11111100
          4 4 0 1 4 hvcurveto
          -38 -28 -24 -37 -41 vvcurveto
          -49 34 -14 41 vhcurveto
          hintmask 11110100
          61 44 47 0 hvcurveto
          -191 376 35 callgsubr
        </CharString>
        <CharString name="equal">
          -17 148 60 99 60 hstem
          44 427 vstem
          71 367 rmoveto
          -8 -60 rlineto
          400 hlineto
          8 60 rlineto
          -420 -159 rmoveto
          -7 -60 rlineto
          400 hlineto
          7 60 rlineto
          endchar
        </CharString>
        <CharString name="estimated">
          241 -13 35 293 34 272 35 hstem
          62 139 390 140 vstem
          201 105 rmoveto
          210 530 vlineto
          198 -7 -131 143 -197 hhcurveto
          -185 -149 -150 -185 -185 149 -149 185 115 102 65 77 61 hvcurveto
          -48 hlineto
          -65 -57 -76 -42 -96 hhcurveto
          -83 -61 31 52 -52 hvcurveto
          390 244 rmoveto
          -390 190 hlineto
          51 52 62 31 82 hhcurveto
          80 62 -30 -50 52 hvcurveto
          endchar
        </CharString>
        <CharString name="eth">
          -86 -9 59 402 61 128 47 hstem
          40 82 216 83 vstem
          111 570 rmoveto
          27 -39 109 70 42 -26 15 -33 16 -37 rlinecurve
          0 -22 8 -21 -147 -90 -161 -191 -108 46 -62 91 163 81 159 231 135 -46 77 -68 47 vhcurveto
          64 41 -26 41 -86 -56 rlineto
          15 -38 -42 7 -43 hhcurveto
          -55 -23 -7 0 hvcurveto
          -40 18 vlineto
          46 40 -6 -11 33 hvcurveto
          136 -191 rmoveto
          0 7 -30 -87 vvcurveto
          -137 -42 -100 -16 -15 vhcurveto
          -12 -13 -30 -2 -22 hhcurveto
          -66 -27 21 102 124 30 109 26 29 hvcurveto
          11 10 31 6 10 hhcurveto
          49 31 -9 -10 22 hvcurveto
          endchar
        </CharString>
        <CharString name="exclam">
          -346 -11 122 -101 -21 hstemhm
          42 115 -115 206 hintmask 01010000
          152 667 rmoveto
          -55 -507 rlineto
          44 hlineto
          52 228 25 111 15 57 rrcurveto
          15 58 0 13 13 vvcurveto
          20 -9 17 -35 -37 -15 -10 0 vhcurveto
          hintmask 01100000
          -63 -678 rmoveto
          43 25 38 37 hvcurveto
          hintmask 10100000
          28 -20 19 -28 -40 -27 -37 -38 vhcurveto
          hintmask 01100000
          -27 19 -20 28 vhcurveto
          endchar
        </CharString>
        <CharString name="exclamdown">
          -346 401 122 hstemhm
          90 115 89 callgsubr
          90 448 rmoveto
          -28 20 -19 28 40 27 37 38 27 -19 20 -28 -43 -25 -38 -37 vhcurveto
          60 -96 rmoveto
          -44 hlineto
          -52 -228 -25 -111 -15 -57 rrcurveto
          -15 -58 0 -13 -13 vvcurveto
          -20 9 -17 35 37 15 10 0 vhcurveto
          endchar
        </CharString>
        <CharString name="f">
          44 callsubr
          88 615 rlineto
          94 hlineto
          16 25 rlineto
          32 -102 vlineto
          5 33 -17 callsubr
          vlineto
          endchar
        </CharString>
        <CharString name="f_f">
          -17 11 -21 460 57 128 76 hstem
          34 616 vstem
          510 623 rmoveto
          6 6 24 6 28 hhcurveto
          69 hlineto
          -1 14 13 27 28 -13 8 -26 -102 -90 -73 -131 -20 hvcurveto
          -191 hlineto
          5 33 -17 callsubr
          76 vlineto
          -95 -625 78 10 88 615 rlineto
          190 hlineto
          -71 -460 78 10 64 450 70 callgsubr
          23 25 5 5 rlinecurve
          endchar
        </CharString>
        <CharString name="fi">
          -58 -4 70 384 57 129 75 hstemhm
          298 152 -29 28 hintmask 11110000
          377 66 rmoveto
          7 callsubr
          -233 vlineto
          5 33 8 53 25 30 5 5 rlinecurve
          5 5 24 3 23 hhcurveto
          hintmask 11101000
          40 47 -12 -1 4 hvcurveto
          29 -6 rlineto
          0 28 13 34 vvcurveto
          33 -17 14 -54 -132 -87 -73 -131 -20 vhcurveto
          -72 hlineto
          -16 -25 rlineto
          -32 79 vlineto
          -96 -616 rlineto
          76 hlineto
          hintmask 11110000
          88 616 rlineto
          94 hlineto
          75 -16 -85 callgsubr
          endchar
        </CharString>
        <CharString name="five">
          -87 -10 50 532 76 38 -20 hstem
          -6 73 248 87 vstem
          315 195 rmoveto
          -113 -54 -42 -82 -81 -27 29 0 vhcurveto
          -7 92 rlineto
          -25 hlineto
          -1 -44 -29 -47 -65 65 -30 104 144 95 91 148 109 -88 61 -169 21 hvcurveto
          24 152 rlineto
          257 87 callgsubr
          -252 hlineto
          -52 -272 rlineto
          190 -23 47 -55 -103 vvcurveto
          endchar
        </CharString>
        <CharString name="five.osf">
          -97 -166 49 562 76 hstem
          287 92 vstem
          -3 -117 rmoveto
          -40 vlineto
          0 28 -9 73 166 115 115 156 138 -141 23 -117 12 vhcurveto
          36 167 rlineto
          248 87 callgsubr
          -243 hlineto
          -66 -293 rlineto
          188 -11 47 -34 -104 vvcurveto
          -191 -196 -5 -83 vhcurveto
          endchar
        </CharString>
        <CharString name="fl">
          -24 -4 70 384 57 129 75 hstem
          317 153 vstem
          130 450 rmoveto
          -96 -616 rlineto
          76 hlineto
          88 616 70 callgsubr
          25 30 5 5 rlinecurve
          6 6 29 2 29 hhcurveto
          47 9 -4 -5 47 hvcurveto
          -97 -558 -57 callsubr
          21 -14 42 47 43 -64 callsubr
          -73 vlineto
          86 561 rlineto
          72 vlineto
          0 -49 12 -59 -129 -87 -73 -131 -20 vhcurveto
          -72 hlineto
          -16 -25 rlineto
          -32 vlineto
          endchar
        </CharString>
        <CharString name="florin">
          -137 -128 76 453 57 126 76 hstemhm
          -38 477 -40 40 hintmask 11110000
          166 401 rmoveto
          -31 -375 rlineto
          -35 -3 -11 -43 -52 hhcurveto
          -25 -26 10 7 -18 hvcurveto
          0 -38 -5 -42 vvcurveto
          -35 26 -11 44 120 57 84 118 9 vhcurveto
          25 327 rlineto
          109 hlineto
          10 57 rlineto
          -112 hlineto
          8 63 rlineto
          hintmask 11101000
          38 8 15 25 47 hhcurveto
          29 25 -9 -8 17 hvcurveto
          0 40 5 42 vvcurveto
          35 -27 11 -44 -125 -54 -89 -113 -12 vhcurveto
          -82 -17 -7 -40 rlineto
          endchar
        </CharString>
        <CharString name="four">
          -67 0 242 -60 60 439 -20 hstemhm
          hintmask 01100000
          354 681 rmoveto
          -372 -446 17 -53 rlineto
          266 hlineto
          hintmask 10100000
          -24 -182 rlineto
          79 hlineto
          hintmask 01100000
          24 182 rlineto
          91 hlineto
          7 60 rlineto
          -91 hlineto
          55 418 rlineto
          -91 -98 rmoveto
          -43 -320 rlineto
          -209 hlineto
          -3 8 rlineto
          endchar
        </CharString>
        <CharString name="four.osf">
          -38 16 62 435 -20 hstem
          -6 464 vstem
          -6 69 rmoveto
          16 -53 rlineto
          269 hlineto
          -26 -180 rlineto
          79 hlineto
          26 180 rlineto
          91 hlineto
          9 62 rlineto
          -91 hlineto
          63 435 -52 21 rlineto
          -90 -456 rmoveto
          -215 hlineto
          1 7 263 333 rlineto
          endchar
        </CharString>
        <CharString name="fraction">
          -143 659 -20 hstem
          -62 532 vstem
          425 688 rmoveto
          -487 -702 48 -30 484 703 rlineto
          endchar
        </CharString>
        <CharString name="g">
          -21 callsubr
          61 callgsubr
          hintmask 00000000
          hintmask 11011000
          69 6 -87 callgsubr
        </CharString>
        <CharString name="g_tilde.loclGUA">
          -21 callsubr
          61 callgsubr
          hintmask 11100100
          175 663 -102 callsubr
          hintmask 11011000
          -106 -657 -87 callgsubr
        </CharString>
        <CharString name="gbreve">
          -21 callsubr
          71 60 61 callgsubr
          49 63 hintmask 11101011
          465 697 rmoveto
          -21 18 rlineto
          -80 callgsubr
          -29 callsubr
          hintmask 11011101
          -396 -691 -68 callsubr
          hintmask 11101011
          -80 callsubr
          hintmask 11101101
          -53 callsubr
          hintmask 11101011
          -58 callgsubr
          hintmask 11101101
          63 70 -39 0 hvcurveto
          endchar
        </CharString>
        <CharString name="gcaron">
          -21 callsubr
          152 -20 61 callgsubr
          hintmask 11101010
          161 696 -89 callsubr
          hintmask 11011100
          -125 -725 -68 callsubr
          hintmask 11101010
          -80 callsubr
          hintmask 11101100
          -53 callsubr
          hintmask 11101010
          -58 callgsubr
          hintmask 11101100
          63 70 -39 0 hvcurveto
          endchar
        </CharString>
        <CharString name="gcircumflex">
          -21 callsubr
          61 callgsubr
          hintmask 11100100
          253 690 -104 callsubr
          hintmask 11011000
          -184 -684 -87 callgsubr
        </CharString>
        <CharString name="gcommaaccent">
          -21 callsubr
          61 callgsubr
          129 71 hintmask 11100110
          371 710 rmoveto
          -16 17 rlineto
          -16 -7 -75 -43 -60 vvcurveto
          -42 24 -16 27 26 13 15 8 5 vhcurveto
          -10 9 -14 17 31 vvcurveto
          37 33 32 3 2 vhcurveto
          hintmask 11011010
          -302 -704 -68 callsubr
          hintmask 11100110
          -80 callsubr
          hintmask 11101010
          -53 callsubr
          hintmask 11100110
          -58 callgsubr
          hintmask 11101010
          63 70 -39 0 hvcurveto
          endchar
        </CharString>
        <CharString name="gdotaccent">
          -21 callsubr
          94 118 61 callgsubr
          104 112 hintmask 11101011
          290 -66 callsubr
          hintmask 11011101
          -221 -585 -68 callsubr
          hintmask 11101011
          -80 callsubr
          hintmask 11101101
          -53 callsubr
          hintmask 11101011
          -58 callgsubr
          hintmask 11101101
          63 70 -39 0 hvcurveto
          endchar
        </CharString>
        <CharString name="germandbls">
          -7 -9 52 599 59 hstemhm
          187 73.5 144.5 78 -54 77 hintmask 11110000
          111 486 rmoveto
          -98 -661 78 10 99 692 rlineto
          69 10 22 46 89 hhcurveto
          62 32 -37 -49 -93 -41 -30 -95 -52 hvcurveto
          -10 -64 rlineto
          hintmask 11101000
          140 -87 30 -32 -61 vvcurveto
          -78 -51 -16 -38 -49 -26 17 0 vhcurveto
          -9 98 rlineto
          -25 hlineto
          -1 -43 -31 -46 -72 71 -18 74 90 84 48 119 80 -44 35 -127 90 hvcurveto
          hintmask 11110000
          64 36 84 48 112 vvcurveto
          95 -69 47 -90 -106 -87 -80 -135 -20 vhcurveto
          endchar
        </CharString>
        <CharString name="grave">
          -345 559 174 hstem
          65 181 vstem
          119 624 -88 callgsubr
          endchar
        </CharString>
        <CharString name="gravecomb">
          559 174 hstem
          -137 181 vstem
          -83 624 -88 callgsubr
          endchar
        </CharString>
        <CharString name="gravecomb.case">
          681 155 hstem
          -137 202 vstem
          -87 735 -88 callsubr
          endchar
        </CharString>
        <CharString name="greater">
          -17 21 -21 hstem
          38 494 vstem
          38 65 rmoveto
          24 -65 462 226 8 62 -408 214 -40 -66 360 -177 rlineto
          endchar
        </CharString>
        <CharString name="greaterequal">
          -17 -11 59 470 -20 hstem
          19 500 vstem
          40 132 rmoveto
          -13 -77 484 183 8 62 -437 218 -11 -77 360 -174 rlineto
          -405 -219 78 callgsubr
        </CharString>
        <CharString name="guillemotleft">
          -191 74 333 hstem
          26 330 vstem
          67 178 rmoveto
          34 callsubr
          153 hmoveto
          34 callsubr
          endchar
        </CharString>
        <CharString name="guillemotright">
          -191 74 333 hstem
          0 330 vstem
          95 237 -5 callgsubr
          220 -150 -5 callgsubr
          endchar
        </CharString>
        <CharString name="guilsinglleft">
          -319 71 336 hstem
          43 177 vstem
          84 175 rmoveto
          80 -104 26 17 -65 151 95 149 -20 19 -100 -98 rlineto
          -19 -18 -38 -42 -7 vvcurveto
          -12 29 -37 12 -18 vhcurveto
          endchar
        </CharString>
        <CharString name="guilsinglright">
          -319 74 333 hstem
          31 177 vstem
          126 237 -5 callgsubr
          endchar
        </CharString>
        <CharString name="h">
          -25 -19 callsubr
          hstemhm
          79 148 92 153 -99 76 hintmask 10110100
          158 627 -35 callgsubr
        </CharString>
        <CharString name="hbar">
          -25 -19 callsubr
          52 48 hstemhm
          105 122 92 153 -99 76 hintmask 10111010
          397 66 rmoveto
          43 277 rlineto
          3 20 6 32 27 vvcurveto
          50 -22 41 -69 -60 -73 -52 -21 -27 vhcurveto
          19 125 rlineto
          159 48 -151 59 callsubr
          -75 -48 68 hlineto
          hintmask 01111010
          -97 -565 -13 callgsubr
          hintmask 10111100
          -47 -43 callsubr
          17 -14 42 2 callsubr
          endchar
        </CharString>
        <CharString name="hcircumflex">
          -25 -19 callsubr
          hstemhm
          79 148 92 153 -99 76 hintmask 10110100
          175 844 -104 callsubr
          -17 -217 -35 callgsubr
        </CharString>
        <CharString name="hookabovecomb">
          670 54 hstem
          -120 53 31 69 vstem
          -115 536 -101 callgsubr
          endchar
        </CharString>
        <CharString name="hookabovecomb.case">
          785 54 hstem
          -24 70 vstem
          -104 677 rmoveto
          -100 callgsubr
          -1 callgsubr
          endchar
        </CharString>
        <CharString name="hungarumlaut">
          -246 561 184 hstem
          55 301 vstem
          150 -58 callsubr
          endchar
        </CharString>
        <CharString name="hyphen">
          40 callgsubr
        </CharString>
        <CharString name="i">
          57 callsubr
          -91 112 hintmask 00000000
          hintmask 11100100
          179 -66 callsubr
          hintmask 11101000
          -43 -157 rmoveto
          -85 callgsubr
          hintmask 11110000
          -73 callsubr
        </CharString>
        <CharString name="i.loclTRK">
          57 callsubr
          -74 112 hintmask 00000000
          hintmask 11100100
          196 -66 callsubr
          hintmask 11101000
          -60 -157 rmoveto
          -85 callgsubr
          hintmask 11110000
          -73 callsubr
        </CharString>
        <CharString name="iacute">
          -15 callgsubr
          hintmask 11100000
          86 591 -95 callsubr
          hintmask 11010000
          -89 -299 rmoveto
          -85 callgsubr
          hintmask 11100000
          -73 callsubr
        </CharString>
        <CharString name="iacute_j.loclNLD">
          13 -167 76 87 -28 callgsubr
          26 -20 -4 callgsubr
          139 151 hintmask 11011010
          150 591 -95 callsubr
          149 -142 -95 callsubr
          -302 -824 -75 callgsubr
          hintmask 11010110
          -139 525 rmoveto
          -85 callgsubr
          hintmask 11101010
          -73 callsubr
        </CharString>
        <CharString name="ibreve">
          -259 -4 -28 callgsubr
          81 60 hstemhm
          57 151 -149 63 -55 152 hintmask 11110000
          340 697 rmoveto
          -21 18 rlineto
          hintmask 11101000
          -80 callgsubr
          hvcurveto
          hintmask 11110000
          -29 callsubr
          hintmask 11100100
          -204 -263 rmoveto
          -85 callgsubr
          hintmask 11110000
          -73 callsubr
        </CharString>
        <CharString name="icircumflex">
          -15 callgsubr
          hintmask 11100000
          126 691 rmoveto
          -93 -93 29 -28 101 72 89 -75 30 35 -70 97 rlineto
          19 -17 -9 14 -10 hhcurveto
          -11 -24 -26 -15 -15 hvcurveto
          hintmask 11010000
          10 -257 rmoveto
          -85 callgsubr
          hintmask 11100000
          -73 callsubr
        </CharString>
        <CharString name="idieresis">
          -259 -4 -28 callgsubr
          107 112 hstemhm
          25 108 -76 -14 callgsubr
          -8 108 hintmask 00000000
          hintmask 11110010
          25 637 -97 callgsubr
          hintmask 11100100
          -75 -203 rmoveto
          -85 callgsubr
          hintmask 11101000
          -73 callsubr
        </CharString>
        <CharString name="igrave">
          -15 callgsubr
          hintmask 11100000
          111 624 -88 callgsubr
          hintmask 11010000
          25 -190 rmoveto
          -85 callgsubr
          hintmask 11100000
          -73 callsubr
        </CharString>
        <CharString name="ij">
          -12 -167 76 87 -28 callgsubr
          26 -20 90 118 -110 118 -4 callgsubr
          -91 112 93 151 -90 112 hintmask 0000000000000000
          hintmask 1101010011000000
          179 -66 callsubr
          hintmask 1101101000100000
          266 -8 -105 callsubr
          -195 -674 81 callsubr
          hvcurveto
          hintmask 1101001001000000
          15 callgsubr
          60 404 rlineto
          72 -27 callsubr
          -68 -436 15 callsubr
          hintmask 1101101000100000
          14 callgsubr
          hintmask 1101000101000000
          -114 525 rmoveto
          -85 callgsubr
          hintmask 1110001001000000
          -73 callsubr
        </CharString>
        <CharString name="imacron">
          -259 -4 -28 callgsubr
          123 63 -4 callgsubr
          hintmask 11110000
          38 673 rmoveto
          -10 -63 rlineto
          248 hlineto
          10 63 rlineto
          hintmask 11101000
          -150 -239 rmoveto
          -85 callgsubr
          hintmask 11110000
          -73 callsubr
        </CharString>
        <CharString name="infinity">
          253 72 60 -60 64 236 67 -63 63 hstemhm
          20 73 579 73 hintmask 00000000
          hintmask 10011100
          376 192 rmoveto
          hintmask 01101100
          -90 54 44 -30 70 hhcurveto
          104 97 84 130 94 -62 59 -88 -70 -49 -29 -91 -83 hvcurveto
          hintmask 10011100
          91 -55 -47 29 -70 hhcurveto
          -105 -96 -86 -131 -93 63 -57 87 70 56 30 90 80 hvcurveto
          -35 63 rmoveto
          -57 -47 -56 -66 -58 hhcurveto
          -49 -38 43 58 85 40 58 69 64 46 -66 -55 29 hvcurveto
          hintmask 01101100
          88 hmoveto
          55 43 50 62 64 hhcurveto
          56 30 -35 -58 -88 -58 -54 -60 -1 hvcurveto
          -58 -36 62 57 -31 hvcurveto
          endchar
        </CharString>
        <CharString name="integral">
          -211 -162 71 733 71 hstem
          -49 434 vstem
          167 538 rmoveto
          -79 -582 rlineto
          -28 -4 -10 -19 -25 -47 -7 22 -18 hhcurveto
          -10 -9 -16 -16 -26 vvcurveto
          -24 26 -18 35 77 67 83 92 13 vhcurveto
          79 582 rlineto
          28 4 8 19 26 47 7 -22 18 hhcurveto
          11 10 16 15 28 vvcurveto
          23 -27 17 -34 -79 -66 -83 -92 -12 vhcurveto
          endchar
        </CharString>
        <CharString name="iogonek">
          -259 -177 51 122 70 -39 39 441 -20 104 118 hstemhm
          54 66 -63 -14 callgsubr
          -91 112 hintmask 0000000000000000
          hintmask 1101110010000000
          179 -66 callsubr
          55 -721 rmoveto
          hintmask 1011110000000000
          -40 callgsubr
          52 51 34 16 10 vhcurveto
          hintmask 1011100100000000
          18 8 14 9 0 vvcurveto
          hintmask 1101100100000000
          39 vlineto
          hintmask 1101101000000000
          68 callgsubr
          hintmask 1101100100000000
          79 -17 -66 -363 rlineto
          -2 -8 -1 -10 -6 vvcurveto
          -36 16 -14 40 -1 vhcurveto
          hintmask 1101110000000000
          -42 -28 -27 -39 -43 vvcurveto
          -49 34 -14 41 vhcurveto
          hintmask 1101110010000000
          61 44 47 0 hvcurveto
          endchar
        </CharString>
        <CharString name="itilde">
          -15 callgsubr
          hintmask 11100000
          81 663 -102 callsubr
          hintmask 11010000
          55 -229 rmoveto
          -85 callgsubr
          hintmask 11100000
          -73 callsubr
        </CharString>
        <CharString name="j">
          74 callgsubr
          90 118 hstemhm
          70 64 callsubr
          hintmask 11101000
          182 583 -105 callsubr
          -195 -674 81 callsubr
          hvcurveto
          hintmask 11010000
          15 callgsubr
          60 404 rlineto
          72 -27 callsubr
          -68 -436 15 callsubr
          hintmask 11101000
          14 callgsubr
          endchar
        </CharString>
        <CharString name="jcircumflex">
          74 callgsubr
          hstem
          70 151 vstem
          159 690 -104 callsubr
          -172 -781 -75 callgsubr
          endchar
        </CharString>
        <CharString name="k">
          -74 -19 callsubr
          hstemhm
          71 148 150 79 hintmask 10111000
          150 627 rmoveto
          hintmask 01111000
          31 callsubr
          hintmask 10111000
          -6 callgsubr
          endchar
        </CharString>
        <CharString name="kcommaaccent">
          -72 -19 callsubr
          hstemhm
          78 148 -20 71 99 79 hintmask 10101100
          157 627 rmoveto
          hintmask 01101100
          31 callsubr
          hintmask 10110100
          -6 callgsubr
          hintmask 10101100
          91 -827 -92 callsubr
        </CharString>
        <CharString name="kgreenlandic">
          -60 -16 callgsubr
          175 79 hintmask 10101100
          301 218 rmoveto
          65 42 96 63 94 vvcurveto
          59 -38 37 -55 -64 -67 -50 -23 -30 vhcurveto
          hintmask 01011100
          67 -27 callsubr
          -79 -434 rlineto
          79 hlineto
          hintmask 10101100
          65 395 rlineto
          13 20 56 37 53 hhcurveto
          34 19 -16 -29 -62 -86 -74 -70 -39 hvcurveto
          -20 vlineto
          72 -163 rlineto
          -33 14 17 -13 36 hhcurveto
          61 32 31 0 hvcurveto
          39 -85 vlineto
          endchar
        </CharString>
        <CharString name="l">
          -276 -4 70 hstemhm
          60 152 -132 147 89 callgsubr
          159 627 -42 callsubr
          hintmask 10100000
          40 callsubr
          endchar
        </CharString>
        <CharString name="lacute">
          27 callgsubr
          hintmask 10100000
          77 741 rmoveto
          16 -37 156 47 rlineto
          35 10 17 7 28 vvcurveto
          18 -11 20 -18 11 vhcurveto
          hintmask 11000000
          -114 -218 -42 callsubr
          hintmask 10100000
          -73 hlineto
          88 561 rlineto
          77 vlineto
          -147 -24 rlineto
          -37 vlineto
          endchar
        </CharString>
        <CharString name="lcaron">
          27 callgsubr
          49 71 hintmask 10110000
          250 576 -34 callsubr
          hintmask 11010000
          -92 51 -42 callsubr
          hintmask 10110000
          40 callsubr
          endchar
        </CharString>
        <CharString name="lcommaaccent">
          27 callgsubr
          -146 71 89 callgsubr
          158 627 -42 callsubr
          hintmask 10100000
          40 callsubr
          hintmask 10010000
          -36 -827 -92 callsubr
        </CharString>
        <CharString name="ldot">
          -276 -4 70 230 123 hstemhm
          60 152 -132 147 -7 116 hintmask 00000000
          hintmask 11100000
          159 627 -42 callsubr
          hintmask 11010000
          40 callsubr
          hintmask 11001000
          188 -347 -45 callgsubr
          endchar
        </CharString>
        <CharString name="less">
          -17 21 -21 hstem
          58 494 vstem
          66 268 rmoveto
          -8 -62 410 -206 38 65 -360 174 406 197 -24 66 rlineto
          endchar
        </CharString>
        <CharString name="lessequal">
          -17 -10 59 hstem
          27 523 vstem
          66 339 rmoveto
          -8 -62 437 -218 11 77 -360 174 391 135 13 77 rlineto
          -516 -473 78 callgsubr
        </CharString>
        <CharString name="logicalnot">
          -17 304 60 hstem
          409 53 vstem
          40 364 rmoveto
          -60 369 -182 53 242 vlineto
          endchar
        </CharString>
        <CharString name="longs">
          44 callsubr
          101 705 -17 callsubr
          vlineto
          endchar
        </CharString>
        <CharString name="lozenge">
          -17 0 71 -50 -21 568 81 0 -20 hstemhm
          64 406 hintmask 01011000
          64 330 rmoveto
          119 -330 rlineto
          62 hlineto
          225 330 -123 319 rlineto
          -62 hlineto
          104 -321 rmoveto
          hintmask 10101000
          -161 -257 -84 258 159 239 rlineto
          endchar
        </CharString>
        <CharString name="lslash">
          27 callgsubr
          89 callgsubr
          98 285 rmoveto
          -37 -216 -39 callgsubr
          hintmask 10100000
          -73 hlineto
          39 250 104 40 rlineto
          54 vlineto
          -95 -38 40 255 50 callgsubr
          hintmask 11000000
          79 -16 -50 -286 -109 -43 rlineto
          -51 vlineto
          endchar
        </CharString>
        <CharString name="m">
          237 -9 callsubr
          hstemhm
          62 150 167 76.5 120.5 155 -96 82 hintmask 10101110
          140 434 rmoveto
          hintmask 01101101
          -83 -434 rlineto
          86 hlineto
          62 397 rlineto
          0 72 48 61 37 4 -25 -18 -14 -1 -21 -4 -23 vhcurveto
          -60 -344 rlineto
          81 hlineto
          58 361 5 36 rlineto
          14 22 60 34 52 hhcurveto
          37 6 -25 -18 -14 -2 -21 -4 -23 hvcurveto
          hintmask 10101110
          -51 -275 -57 callsubr
          19 -14 42 2 callsubr
          hintmask 10101101
          -73 hlineto
          49 295 rlineto
          3 20 7 39 15 vvcurveto
          40 -23 38 -64 -68 -85 -65 -12 -16 vhcurveto
          39 -1 -21 38 -63 hhcurveto
          -73 -91 -74 0 hvcurveto
          hintmask 10011110
          68 vlineto
          -150 -19 rlineto
          -37 vlineto
          endchar
        </CharString>
        <CharString name="macron">
          -235 614 63 hstem
          66 290 vstem
          74 677 -54 callgsubr
          endchar
        </CharString>
        <CharString name="minus">
          -17 240 59 hstem
          82 406 vstem
          88 299 60 callsubr
          endchar
        </CharString>
        <CharString name="multiply">
          -17 103 335 hstem
          71 363 vstem
          71 155 rmoveto
          46 -52 131 117 103 -116 54 47 -103 117 132 118 -45 52 -133 -118 -99 114 -53 -48 99 -114 rlineto
          endchar
        </CharString>
        <CharString name="n">
          -14 -16 callgsubr
          119 79 callsubr
          hintmask 10101010
          136 434 -81 callsubr
        </CharString>
        <CharString name="nacute">
          -14 -16 callgsubr
          119 79 callsubr
          hintmask 10101010
          258 591 -95 callsubr
          -261 -299 -81 callsubr
        </CharString>
        <CharString name="nacute.loclPLK">
          -14 -16 callgsubr
          119 79 callsubr
          hintmask 10101010
          285 -23 callgsubr
          -250 -311 -81 callsubr
        </CharString>
        <CharString name="napostrophe">
          53 -16 callgsubr
          -120 71 168 79 callsubr
          hintmask 10100101
          63 576 -34 callsubr
          73 -142 rmoveto
          hintmask 01100101
          -68 callgsubr
          hintmask 10100110
          -69 callsubr
          hintmask 10101001
          -75 hlineto
          -66 callgsubr
          hintmask 10011001
          18 callgsubr
        </CharString>
        <CharString name="ncaron">
          86 callgsubr
          162 -20 hstemhm
          57 151 119 79 callsubr
          hintmask 10101101
          191 696 -89 callsubr
          -88 -297 rmoveto
          hintmask 01101101
          -68 callgsubr
          hintmask 10101110
          -69 callsubr
          hintmask 10101101
          -75 hlineto
          -66 callgsubr
          hintmask 10011101
          18 callgsubr
        </CharString>
        <CharString name="ncommaaccent">
          -14 -16 callgsubr
          29 71 19 79 callsubr
          hintmask 10100101
          136 434 rmoveto
          hintmask 01100101
          -68 callgsubr
          hintmask 10100110
          -69 callsubr
          hintmask 10101101
          -75 hlineto
          -66 callgsubr
          hintmask 10011101
          68 -91 callgsubr
          hintmask 10100101
          143 -635 -92 callsubr
        </CharString>
        <CharString name="nine">
          -52 -9 38 208 55 317 51 hstem
          52 88 227 92 vstem
          41 32 rmoveto
          -5 -34 rlineto
          0 30 -7 51 175 167 155 276 148 -70 90 -125 -95 -117 -90 -153 -109 66 -71 100 85 51 58 0 vhcurveto
          -179 -28 -100 -87 -142 hhcurveto
          -14 -14 1 2 -15 hvcurveto
          319 306 rmoveto
          0 -49 -46 -57 -67 -47 44 93 104 35 76 80 77 35 -39 -114 -39 -1 -43 -6 -36 vhcurveto
          endchar
        </CharString>
        <CharString name="nine.osf">
          -48 -166 47 224 55 313 58 hstem
          44 88 228 88 vstem
          30 -119 rmoveto
          -5 -40 rlineto
          0 30 -7 31 192 170 168 317 154 -76 58 -98 -103 -127 -74 -207 -76 56 -69 90 101 51 58 0 vhcurveto
          -196 -31 -97 -86 -184 hhcurveto
          318 325 rmoveto
          0 -49 -46 -68 -56 -43 30 102 120 32 61 77 83 36 -48 -84 -39 -2 -43 -10 -53 vhcurveto
          endchar
        </CharString>
        <CharString name="notequal">
          -17 12 -21 157 60 99 60 150 -20 hstem
          82 427 vstem
          170 148 rmoveto
          -80 -124 52 -33 101 157 rlineto
          239 hlineto
          7 60 rlineto
          -208 hlineto
          64 99 rlineto
          156 hlineto
          8 60 rlineto
          -125 hlineto
          76 118 -49 32 -98 -150 rlineto
          -204 hlineto
          -8 -60 rlineto
          173 hlineto
          -65 -99 rlineto
          -120 hlineto
          -7 -60 rlineto
          endchar
        </CharString>
        <CharString name="ntilde">
          -14 -16 callgsubr
          119 79 callsubr
          hintmask 10101010
          196 663 -102 callsubr
          -60 -229 -81 callsubr
        </CharString>
        <CharString name="numbersign">
          -17 124 59 136 59 hstem
          -2 513 vstem
          106 124 rmoveto
          88 callgsubr
          134 hlineto
          88 callgsubr
          128 59 -117 hlineto
          26 136 rlineto
          114 59 -102 71 callgsubr
          71 callgsubr
          -59 122 hlineto
          -26 -136 rlineto
          -119 -59 hlineto
          313 59 rmoveto
          -134 hlineto
          26 136 rlineto
          134 hlineto
          endchar
        </CharString>
        <CharString name="o">
          -60 callgsubr
          vstem
          178 -9 -106 callsubr
          endchar
        </CharString>
        <CharString name="oacute">
          -60 callgsubr
          vstem
          198 591 -95 callsubr
          -159 -742 -106 callsubr
          endchar
        </CharString>
        <CharString name="oacute.loclPLK">
          -60 callgsubr
          vstem
          264 -23 callgsubr
          -187 -754 -106 callsubr
          endchar
        </CharString>
        <CharString name="obreve">
          -89 -9 59 403 60 55 60 hstem
          40 82 39 63 112 82 vstem
          442 697 rmoveto
          -21 18 rlineto
          -80 callgsubr
          -29 callsubr
          -264 -706 -106 callsubr
          endchar
        </CharString>
        <CharString name="ocircumflex">
          -60 callgsubr
          vstem
          245 690 -104 callsubr
          -67 -699 -106 callsubr
          endchar
        </CharString>
        <CharString name="odieresis">
          -89 -9 59 403 60 81 112 hstemhm
          40 82 14 76 callsubr
          -94 82 hintmask 00000000
          hintmask 11111100
          136 637 -97 callgsubr
          hintmask 11010010
          -144 -646 -106 callsubr
          endchar
        </CharString>
        <CharString name="oe">
          131 4 callsubr
          hstem
          48 callsubr
          79 176 76 vstem
          634 60 44 callgsubr
          0 -53 -38 -50 -75 -27 30 109 vhcurveto
          4 1 4 6 vvcurveto
          140 28 116 38 146 vvcurveto
          43 -31 54 -75 -67 -52 -37 -54 -37 vhcurveto
          58 -16 -37 33 -69 hhcurveto
          -153 -90 -155 -200 28 callsubr
          68 55 30 51 39 hvcurveto
          -57 19 45 -24 77 hhcurveto
          92 61 69 0 hvcurveto
          -418 -10 rmoveto
          -75 -19 29 120 114 41 107 16 15 hvcurveto
          12 13 29 6 22 hhcurveto
          75 18 -34 -115 -114 -39 -111 -16 -15 hvcurveto
          -12 -13 -30 -2 -22 hhcurveto
          199 196 35 callgsubr
        </CharString>
        <CharString name="ogonek">
          -364 -177 51 hstem
          -51 66 vstem
          129 -130 rmoveto
          -40 callgsubr
          62 74 38 0 vhcurveto
          -39 hlineto
          -60 -28 -41 -47 -53 -2 callsubr
          endchar
        </CharString>
        <CharString name="ograve">
          -60 callgsubr
          vstem
          234 623 -88 callgsubr
          -56 -632 -106 callsubr
          endchar
        </CharString>
        <CharString name="ohorn">
          -60 callgsubr
          53 66 vstem
          537 500 -91 callsubr
          endchar
        </CharString>
        <CharString name="ohungarumlaut">
          -60 callgsubr
          vstem
          240 -58 callsubr
          -214 -754 -106 callsubr
          endchar
        </CharString>
        <CharString name="omacron">
          -89 -9 59 403 60 101 63 hstem
          48 callsubr
          82 vstem
          140 677 -54 callgsubr
          -244 -686 -106 callsubr
          endchar
        </CharString>
        <CharString name="one">
          -167 21 -21 652 -20 hstem
          131 55 rmoveto
          -121 -14 -5 -41 rlineto
          325 hlineto
          5 41 -126 14 84 597 rlineto
          -42 hlineto
          -196 -34 rlineto
          -43 149 vlineto
          endchar
        </CharString>
        <CharString name="one.osf">
          -167 0 49.5 394.5 77 hstem
          29 293 vstem
          34 44 rmoveto
          -5 -44 rlineto
          288 hlineto
          5 44 -105 11 66 466 rlineto
          -41 hlineto
          -162 -30 rlineto
          -47 115 vlineto
          -55 -389 rlineto
          endchar
        </CharString>
        <CharString name="onehalf">
          223 1 53 -44 -21 306 52 -36 36 253 51 8 -20 hstemhm
          629 77 hintmask 10101010
          16 callsubr
          hintmask 10011010
          21 callgsubr
          316 -321 47 callgsubr
          hintmask 10101010
          17 callsubr
        </CharString>
        <CharString name="onequarter">
          82 callgsubr
          165 36 253 51 8 -20 hstemhm
          17 696 hintmask 10011010
          16 callsubr
          hintmask 00111010
          21 callgsubr
          303 -221 rmoveto
          14 -42 rlineto
          144 hlineto
          hintmask 10011010
          -15 -103 rlineto
          68 hlineto
          hintmask 00111010
          17 103 rlineto
          59 hlineto
          hintmask 10011010
          38 callgsubr
        </CharString>
        <CharString name="ordfeminine">
          -203 355 60 -57 61 230 58 hstemhm
          21 65 105 117 hintmask 01111000
          202 433 18 callsubr
          -10 -16 -4 -12 -11 vvcurveto
          -18 12 -16 34 31 40 23 0 vhcurveto
          38 -49 vlineto
          46 291 rlineto
          -37 hlineto
          -17 -24 rlineto
          3 -7 -35 18 -36 hhcurveto
          -116 -36 -178 -65 hvcurveto
          hintmask 10111000
          -66 22 -43 57 vhcurveto
          hintmask 01111000
          41 39 41 37 22 hvcurveto
          30 194 rmoveto
          hintmask 10111000
          -26 -150 rlineto
          -23 -18 -35 -39 -30 hhcurveto
          -26 -11 27 34 65 16 77 20 26 hvcurveto
          3 2 28 2 8 hhcurveto
          hintmask 01111000
          32 17 -8 -14 23 hvcurveto
          endchar
        </CharString>
        <CharString name="ordmasculine">
          -217 355 54 241 57 hstem
          25 68 144 68 vstem
          144 355 rmoveto
          103 58 105 120 87 -48 40 -61 -103 -68 -105 -118 -89 58 -40 61 hvcurveto
          18 54 rmoveto
          -36 -33 20 76 56 19 72 8 9 hvcurveto
          6 5 34 2 11 hhcurveto
          36 31 -19 -74 -58 -16 -73 -8 -9 hvcurveto
          -7 -7 -33 -1 -11 hhcurveto
          endchar
        </CharString>
        <CharString name="oslash">
          63 callgsubr
          hintmask 00000000
          hintmask 01101100
          96 14 -59 callsubr
        </CharString>
        <CharString name="oslashacute">
          63 callgsubr
          hintmask 10101100
          214 591 -95 callsubr
          hintmask 01101100
          -257 -719 -59 callsubr
        </CharString>
        <CharString name="otilde">
          -60 callgsubr
          vstem
          155 663 -102 callsubr
          23 -672 -106 callsubr
          endchar
        </CharString>
        <CharString name="p">
          -57 0 56 388 69 hstem
          46 146 181 82 vstem
          125 434 rmoveto
          -110 -609 83 10 28 180 rlineto
          -6 24 43 -9 40 hhcurveto
          160 62 266 97 97 -38 53 -82 -74 -73 -89 -9 -6 hvcurveto
          -2 3 rlineto
          6 7 6 11 12 vvcurveto
          58 vlineto
          -146 -19 rlineto
          -37 vlineto
          93 -354 rmoveto
          45 288 rlineto
          17 21 56 43 47 hhcurveto
          49 16 -35 -67 -107 -45 -136 -27 -32 hvcurveto
          -6 -5 -27 -5 -19 hhcurveto
          -51 -42 27 13 -18 hvcurveto
          endchar
        </CharString>
        <CharString name="paragraph">
          56 -165 45 727 41 hstem
          105 492 vstem
          298 196 rmoveto
          63 452 rlineto
          -134 -122 -118 -136 -111 83 -83 110 -4 hvcurveto
          -182 -316 rmoveto
          -5 -45 rlineto
          149 hlineto
          103 51 68 55 8 hvcurveto
          90 635 80 14 5 41 rlineto
          -157 hlineto
          -92 -669 -8 -54 -15 -20 -67 -8 rlinecurve
          endchar
        </CharString>
        <CharString name="parenleft">
          -347 -151 850 hstem
          -8 80 vstem
          137 -151 rmoveto
          23 40 rlineto
          -59 28 -29 14 168 vvcurveto
          185 58 329 167 45 vhcurveto
          -11 41 rlineto
          -222 -64 -72 -351 -186 vvcurveto
          -121 33 -105 112 -23 vhcurveto
          endchar
        </CharString>
        <CharString name="parenright">
          -347 659 -20 hstem
          139 80 vstem
          -86 -110 rmoveto
          11 -41 rlineto
          224 65 70 350 186 vvcurveto
          121 -33 105 -112 23 vhcurveto
          -23 -40 rlineto
          59 -28 29 -14 -168 vvcurveto
          -185 -58 -329 -167 -45 vhcurveto
          endchar
        </CharString>
        <CharString name="partialdiff">
          -17 -9 58 313 64 207 55 hstem
          44 91 295 84 vstem
          149 629 rmoveto
          17 -26 rlineto
          18 38 44 12 33 hhcurveto
          112 37 -90 -98 -17 -1 -17 -2 -17 hvcurveto
          0 -43 32 -73 -139 -128 -95 -164 -101 59 -75 119 169 123 167 275 182 -87 73 -115 -99 -64 -59 0 vhcurveto
          272 -289 rmoveto
          -212 -26 -57 -79 -99 hhcurveto
          -78 -26 60 66 122 52 65 120 78 36 -22 0 hvcurveto
          endchar
        </CharString>
        <CharString name="percent">
          159 81 callgsubr
          19 67 163 67 83 67 163 67 hintmask 10111111
          516 53 callsubr
          hintmask 11011111
          -4 callsubr
          vhcurveto
          hintmask 10111111
          -114 -58 -81 -114 hvcurveto
          hintmask 11011111
          67 2 rmoveto
          -11 callsubr
          hintmask 10111111
          313 -247 rmoveto
          -4 callsubr
          -114 -58 -81 -114 vhcurveto
          67 2 rmoveto
          -11 callsubr
          endchar
        </CharString>
        <CharString name="period">
          -387 -11 123 -102 -21 hstemhm
          -4 116 hintmask 01100000
          44 -11 rmoveto
          44 24 38 37 hvcurveto
          hintmask 10100000
          28 -19 20 -30 -40 -27 -37 -38 vhcurveto
          hintmask 01100000
          -28 20 -20 28 vhcurveto
          endchar
        </CharString>
        <CharString name="periodcentered">
          -356 199 123 hstem
          39 116 vstem
          87 199 -45 callgsubr
          endchar
        </CharString>
        <CharString name="perthousand">
          527 81 callgsubr
          27 67 163 67 83 67 163 67 44 67 163 67 hintmask 1011111111000000
          524 53 callsubr
          hintmask 0101110000000000
          -4 callsubr
          vhcurveto
          hintmask 1011111111000000
          -114 -58 -81 -114 hvcurveto
          hintmask 0101110000000000
          67 2 rmoveto
          -11 callsubr
          hintmask 1010001111000000
          313 -247 rmoveto
          -4 callsubr
          -114 -58 -81 -114 vhcurveto
          341 hmoveto
          -4 callsubr
          -114 -58 -81 -114 vhcurveto
          -274 2 rmoveto
          -11 callsubr
          341 hmoveto
          -11 callsubr
          endchar
        </CharString>
        <CharString name="pi">
          -11 -4 70 -66 41 403 69 -5 -20 hstemhm
          321 153 hintmask 00000000
          hintmask 01101000
          10 41 rmoveto
          -41 132 vlineto
          81 444 rlineto
          166 hlineto
          -54 -297 rlineto
          hintmask 10101000
          -5 -26 -9 -49 -25 vvcurveto
          -23 8 -28 51 47 47 -64 callsubr
          -72 vlineto
          66 378 rlineto
          3 hlineto
          21 29 3 20 23 hvcurveto
          hintmask 10011000
          47 41 rlineto
          hintmask 01101000
          -25 39 -90 -34 rlineto
          -310 hlineto
          -38 -27 -11 -25 -25 hvcurveto
          -43 -38 24 -36 94 40 -74 -389 rlineto
          endchar
        </CharString>
        <CharString name="plus">
          -27 240 59 hstem
          58 406 vstem
          224 240 11 callgsubr
          endchar
        </CharString>
        <CharString name="plusminus">
          -17 23 59 222 59 hstem
          28 443 vstem
          231 304 11 callgsubr
          -31 -222 60 callsubr
          endchar
        </CharString>
        <CharString name="product">
          101 0 44 545 59 -44 44 hstemhm
          7 670 hintmask 11010000
          13 44 rmoveto
          -6 -44 rlineto
          243 hlineto
          5 44 -81 15 75 530 rlineto
          260 hlineto
          -75 -530 -85 -15 -5 -44 rlineto
          244 hlineto
          5 44 -81 15 rlineto
          hintmask 10110000
          75 530 85 15 rlineto
          hintmask 11010000
          5 44 rlineto
          -585 hlineto
          hintmask 10110000
          -5 -44 rlineto
          hintmask 11010000
          85 -15 -75 -530 rlineto
          endchar
        </CharString>
        <CharString name="q">
          -79 -9 59 403 60 hstem
          36 82 vstem
          291 40 rmoveto
          -38 -215 82 10 108 689 rlineto
          -36 hlineto
          -29 -40 rlineto
          8 -15 -46 21 -52 hhcurveto
          -149 -80 -237 -126 -97 36 -62 83 68 56 55 65 34 hvcurveto
          3 -1 -9 -16 -10 -20 -6 -34 rlinecurve
          62 373 rmoveto
          -44 -263 rlineto
          -41 -28 -51 -59 -50 hhcurveto
          -49 -13 54 67 107 35 104 37 56 hvcurveto
          6 4 12 9 19 hhcurveto
          49 45 -17 -23 34 hvcurveto
          endchar
        </CharString>
        <CharString name="question">
          -186 -11 121 476 75 hstem
          32 112 134 71 vstem
          89 308 rmoveto
          -13 -149 rlineto
          52 hlineto
          31 117 49 17 rlineto
          77 27 64 54 110 vvcurveto
          108 -64 69 -130 -75 -36 -17 -37 -25 15 -6 0 vhcurveto
          7 25 39 3 28 hhcurveto
          82 45 -45 -83 -66 -19 -26 -102 -35 hvcurveto
          -77 -342 rmoveto
          7 hlineto
          37 20 33 32 33 -20 23 -33 -35 -24 -31 -34 -31 18 -22 30 -3 hvcurveto
          endchar
        </CharString>
        <CharString name="questiondown">
          -186 -151 75 476 121 hstemhm
          29 71 134 112 -27 15 hintmask 11110000
          298 521 rmoveto
          -7 hlineto
          -37 -20 -33 -32 -33 20 -23 33 35 24 31 34 31 -18 22 -30 3 hvcurveto
          -79 -287 rmoveto
          -49 -17 rlineto
          -77 -27 -64 -54 -110 vvcurveto
          -108 64 -69 130 vhcurveto
          hintmask 11101000
          75 36 17 37 25 -15 6 0 hvcurveto
          -7 -25 -39 -3 -28 hhcurveto
          -82 -45 45 83 60 19 32 102 35 hvcurveto
          68 23 13 149 rlineto
          -52 hlineto
          endchar
        </CharString>
        <CharString name="quotedbl">
          -213 494 224 hstemhm
          60 92 41 92 hintmask 00000000
          hintmask 11100000
          68 705 rmoveto
          -5 callsubr
          133 hmoveto
          -5 callsubr
          endchar
        </CharString>
        <CharString name="quotedblbase">
          -197 -6 115 -93 -21 24 -21 hstemhm
          26 120 28 120 hintmask 00110000
          88 -5 78 callsubr
          hintmask 10010000
          12 callsubr
          vhcurveto
          hintmask 01010000
          -27 22 -16 42 callsubr
          149 -3 78 callsubr
          hintmask 10011000
          12 callsubr
          vhcurveto
          hintmask 01011000
          -27 22 -16 42 callsubr
          endchar
        </CharString>
        <CharString name="quotedblleft">
          -242 487 115 hstemhm
          75 120 28 120 hintmask 11000000
          134 598 rmoveto
          -1 3 71 91 -20 18 rlineto
          57 callgsubr
          -5 -6 -1 -3 -5 vhcurveto
          148 hmoveto
          -1 3 71 91 -20 18 rlineto
          hintmask 11100000
          57 callgsubr
          vhcurveto
          hintmask 11000000
          -5 -6 -1 -3 -5 hvcurveto
          endchar
        </CharString>
        <CharString name="quotedblright">
          -197 595 115 hstemhm
          51 120 28 120 hintmask 11000000
          113 596 78 callsubr
          12 callsubr
          -27 22 -16 23 5 6 1 3 5 vhcurveto
          149 -3 78 callsubr
          hintmask 11100000
          12 callsubr
          -27 22 -16 23 vhcurveto
          hintmask 11000000
          5 6 1 3 5 hvcurveto
          endchar
        </CharString>
        <CharString name="quoteleft">
          -397 468 119 hstemhm
          46 120 89 callgsubr
          109 583 rmoveto
          -1 3 73 99 -20 18 rlineto
          -53 -39 -62 -74 -61 vvcurveto
          -37 17 -24 39 39 25 36 36 28 -18 19 -23 -5 -6 -1 -3 -5 vhcurveto
          endchar
        </CharString>
        <CharString name="quoteright">
          -397 592 119 hstemhm
          63 120 89 callgsubr
          121 593 rmoveto
          -73 -99 20 -18 rlineto
          12 callgsubr
          -28 18 -19 23 5 6 1 3 5 vhcurveto
          endchar
        </CharString>
        <CharString name="quotesinglbase">
          -359 84 callsubr
          hstemhm
          23 120 hintmask 00110000
          81 4 callgsubr
        </CharString>
        <CharString name="quotesingle">
          -340 494 224 hstemhm
          69 92 89 callgsubr
          77 705 rmoveto
          -5 callsubr
          endchar
        </CharString>
        <CharString name="r">
          22 callgsubr
          hstemhm
          57 151 hintmask 11010000
          136 434 -70 callsubr
          hintmask 10110000
          67 callsubr
          endchar
        </CharString>
        <CharString name="racute">
          22 callgsubr
          hstemhm
          57 151 hintmask 11010000
          176 591 -95 callsubr
          -179 -299 -70 callsubr
          hintmask 10110000
          67 callsubr
          endchar
        </CharString>
        <CharString name="radical">
          -17 16 -21 458 41 235 41 hstem
          46 626 vstem
          114 437 rmoveto
          97 -442 rlineto
          49 hlineto
          325 718 81 16 6 41 rlineto
          -117 hlineto
          -290 -649 -70 373 rlineto
          -143 hlineto
          -6 -41 rlineto
          endchar
        </CharString>
        <CharString name="rcaron">
          22 callgsubr
          162 -20 hstemhm
          57 151 hintmask 11011000
          107 696 -89 callsubr
          -4 -297 -70 callsubr
          hintmask 10111000
          67 callsubr
          endchar
        </CharString>
        <CharString name="rcommaaccent">
          22 callgsubr
          hstemhm
          57 151 -127 71 hintmask 11001000
          136 434 rmoveto
          -77 -434 rlineto
          81 hlineto
          57 375 rlineto
          18 13 30 32 66 hhcurveto
          42 hlineto
          6 7 9 16 23 vvcurveto
          32 -15 10 -21 vhcurveto
          hintmask 11010000
          -56 -52 -60 -41 -17 hvcurveto
          -4 hlineto
          hintmask 10110000
          67 callsubr
          hintmask 11001000
          -13 -635 -92 callsubr
        </CharString>
        <CharString name="registered">
          103 230 52 76 27.5 86.5 33 109 34 76 52 hstem
          92 58 109 64 85 68 104 58 vstem
          92 503 rmoveto
          -151 122 -122 151 151 122 122 151 151 -122 122 -151 -151 -122 -122 -151 vhcurveto
          273 -221 rmoveto
          -123 -92 99 122 122 92 99 123 122 93 -99 -122 -122 -93 -99 -122 hvcurveto
          -143 100 rmoveto
          -24 138 24 vlineto
          -37 7 rlineto
          83 28 vlineto
          65 -101 rlineto
          -10 5 11 -3 8 hhcurveto
          71 25 hlineto
          -36 9 -62 90 rlineto
          12 4 51 15 73 vvcurveto
          50 -44 24 -50 vhcurveto
          -160 -28 hlineto
          37 -6 rlineto
          -225 vlineto
          92 116 rmoveto
          -28 106 hlineto
          0 15 3 19 32 19 -7 -38 -39 -15 -25 -42 vhcurveto
          endchar
        </CharString>
        <CharString name="ring">
          -369 564 44 92 46 hstem
          55 52 77 53 vstem
          55 635 -62 callgsubr
          endchar
        </CharString>
        <CharString name="s">
          25 callgsubr
          hintmask 00000000
          hintmask 11101000
          86 158 -76 callsubr
        </CharString>
        <CharString name="sacute">
          -147 -9 52 415 55 hstemhm
          18 75 callgsubr
          hintmask 11011000
          177 591 -95 callsubr
          hintmask 11101000
          -228 -575 -76 callsubr
        </CharString>
        <CharString name="sacute.loclPLK">
          25 callgsubr
          hintmask 11011000
          218 -23 callgsubr
          hintmask 11101000
          -233 -587 -76 callsubr
        </CharString>
        <CharString name="scaron">
          -147 -9 52 415 55 136 -20 hstemhm
          18 75 callgsubr
          hintmask 11101100
          121 696 -89 callsubr
          hintmask 11110100
          -66 -573 rmoveto
          -25 hlineto
          -1 -44 -29 -47 -72 60 -19 83 123 59 91 59 hvcurveto
          hintmask 11101100
          -20 callgsubr
          hintmask 11101010
          -65 callsubr
          hintmask 11101100
          -20 callsubr
          hintmask 11110100
          -50 -25 17 0 hvcurveto
          endchar
        </CharString>
        <CharString name="scedilla">
          -147 -187 42 136 52 -50 50 415 55 hstemhm
          18 74 -24 70 -41 77 -2 68 31 72 -43 74 hintmask 1101010110000000
          68 -50 callsubr
          hintmask 1101001010000000
          -34 21 rlineto
          20 vlineto
          114 6 55 87 57 vvcurveto
          hintmask 1101010110000000
          -20 callgsubr
          hintmask 1101010101000000
          -65 callsubr
          hintmask 1101010110000000
          -20 callsubr
          hintmask 1101100110000000
          -50 -25 17 0 hvcurveto
          -8 98 rlineto
          -25 hlineto
          hintmask 1011100110000000
          -1 -44 -29 -47 -62 44 -22 65 -5 hvcurveto
          hintmask 1101001010000000
          -30 -42 rlineto
          -20 vlineto
          hintmask 1101010110000000
          -54 callsubr
        </CharString>
        <CharString name="scircumflex">
          25 callgsubr
          hintmask 11011000
          215 690 -104 callsubr
          hintmask 11101000
          -129 -532 -76 callsubr
        </CharString>
        <CharString name="scommaaccent">
          -147 -9 52 415 55 hstemhm
          18 74 -24 70 -3 71 65 72 -43 74 hintmask 00000000
          hintmask 11100100
          88 54 callgsubr
          hintmask 11010100
          -20 callgsubr
          hintmask 11010010
          -65 callsubr
          hintmask 11010100
          -20 callsubr
          hintmask 11101100
          -50 -25 17 0 hvcurveto
          2 -244 -92 callsubr
        </CharString>
        <CharString name="section">
          4 -166 58 739 65 hstem
          123 88 145 84 vstem
          314 306 rmoveto
          128 -94 50 62 -136 106 rlineto
          -93 72 -52 31 52 vvcurveto
          75 41 21 72 61 34 -13 0 vhcurveto
          8 -94 rlineto
          49 hlineto
          18 147 rlineto
          10 -22 -68 15 -66 hhcurveto
          -136 -79 -71 -108 -93 94 -47 97 -71 hvcurveto
          -92 -472 rmoveto
          103 115 61 120 73 -60 53 -95 66 hvcurveto
          -160 111 -51 -62 137 -101 rlineto
          70 -52 75 -46 -59 vvcurveto
          -76 -50 -30 -80 -55 -36 27 9 -10 vhcurveto
          -6 107 rlineto
          -54 hlineto
          -19 -153 rlineto
          -20 25 78 -28 73 hhcurveto
          endchar
        </CharString>
        <CharString name="semicolon">
          -321 84 callsubr
          328 123 hstemhm
          29 120 -77 116 hintmask 00000000
          hintmask 00110100
          120 322 -45 callgsubr
          -33 -331 rmoveto
          -73 -99 20 -18 rlineto
          hintmask 10011000
          12 callgsubr
          vhcurveto
          hintmask 01011000
          -28 18 -19 23 vhcurveto
          hintmask 00110100
          5 6 1 3 5 hvcurveto
          endchar
        </CharString>
        <CharString name="seven">
          -107 21 -21 572 76 hstem
          398 572 rmoveto
          -11 vlineto
          -347 -524 rlineto
          -37 65 vlineto
          341 572 rlineto
          76 -403 -155 41 vlineto
          18 79 rlineto
          endchar
        </CharString>
        <CharString name="seven.osf">
          -113 445 76 hstem
          34 41 vstem
          356 428 rmoveto
          -346 -566 35 -25 rlineto
          45 hlineto
          330 608 11 76 rlineto
          -397 -155 41 hlineto
          18 79 rlineto
          263 hlineto
          endchar
        </CharString>
        <CharString name="six">
          -52 -10 50 291 61 260 -20 hstem
          36 91 233 88 vstem
          472 617 rmoveto
          -4 35 rlineto
          -235 -12 -197 -192 -226 vvcurveto
          -175 98 -57 104 104 106 94 142 121 -73 45 -89 -92 -48 -52 0 vhcurveto
          33 142 128 112 165 23 rrcurveto
          -337 -321 rmoveto
          18 24 36 17 53 hhcurveto
          88 24 -37 -101 -107 -42 -46 -78 -80 -33 63 99 35 3 37 5 22 hvcurveto
          endchar
        </CharString>
        <CharString name="six.osf">
          -17 -10 60 281 61 225 35 hstem
          52 92 244 84 vstem
          490 617 rmoveto
          -4 35 rlineto
          -220 -214 -209 -239 -159 94 -55 104 96 126 70 183 88 -50 61 -103 -92 -61 -43 0 hvcurveto
          34 133 125 112 165 23 rrcurveto
          -335 -312 rmoveto
          0 47 26 75 77 34 -27 -99 -118 -44 -37 -88 -69 -43 50 87 35 1 33 10 50 vhcurveto
          endchar
        </CharString>
        <CharString name="slash">
          31 callgsubr
        </CharString>
        <CharString name="space">
          -367 endchar
        </CharString>
        <CharString name="sterling">
          -47 15 -21 24 -21 297 57 255 53 hstemhm
          115.5 77 hintmask 01111000
          328 606 rmoveto
          24 30 -3 -10 29 hvcurveto
          15 -90 rlineto
          49 hlineto
          15 132 rlineto
          12 -32 -50 12 -66 hhcurveto
          -137 -62 -52 -186 -23 hvcurveto
          -9 -70 rlineto
          -70 hlineto
          -7 -57 rlineto
          70 hlineto
          -14 -109 -12 -91 -51 -46 -23 -17 rlinecurve
          -16 7 -18 19 21 34 24 20 21 vhcurveto
          hintmask 10111000
          213 -40 rlineto
          -4 23 17 -3 14 hhcurveto
          23 11 8 25 15 hvcurveto
          27 46 -23 26 -61 -42 -223 47 24 28 0 53 2 12 rlinecurve
          13 97 rlineto
          165 hlineto
          7 57 rlineto
          -165 hlineto
          9 67 rlineto
          hintmask 01111000
          15 117 4 70 112 1 rrcurveto
          endchar
        </CharString>
        <CharString name="sterling.osf">
          -47 -6 67 -64 33 -15 -21 24 -21 237 57 187 53 -24 -20 hstemhm
          125.5 77 -63.5 78 hintmask 0001101100000000
          129 234 rmoveto
          -7 -60 rlineto
          hintmask 0100101100000000
          -9 -73 -55 -57 -21 -14 rrcurveto
          -13 7 -20 18 33 45 44 0 vhcurveto
          hintmask 0010101100000000
          158 -37 rlineto
          -8 25 24 -2 20 hhcurveto
          22 17 12 20 16 hvcurveto
          hintmask 1000101100000000
          37 46 -23 26 -80 -37 -180 43 17 18 3 26 3 26 rlinecurve
          7 60 rlineto
          114 hlineto
          7 57 rlineto
          hintmask 0001110010000000
          -113 hlineto
          6 47 rlineto
          82 10 5 58 80 hhcurveto
          35 28 -13 0 hvcurveto
          6 -90 rlineto
          49 hlineto
          hintmask 0001101100000000
          16 132 rlineto
          hintmask 0001110010000000
          0 -54 24 -76 -105 -54 -48 -144 -18 vhcurveto
          -6 -48 rlineto
          hintmask 0001101100000000
          -61 hlineto
          -7 -57 rlineto
          endchar
        </CharString>
        <CharString name="summation">
          -82 0 63 -63 174 317 157 -49 49 hstemhm
          -11 83 hintmask 10011000
          -11 50 rmoveto
          -50 423 vlineto
          hintmask 01011000
          21 174 rlineto
          -46 hlineto
          hintmask 10011000
          -40 -111 rlineto
          -275 15 hlineto
          211 287 -120 220 rlineto
          14 246 vlineto
          hintmask 10101000
          10 -108 rlineto
          44 hlineto
          hintmask 10011000
          20 157 rlineto
          -399 hlineto
          -10 -50 136 -250 rlineto
          endchar
        </CharString>
        <CharString name="t">
          74 callsubr
          50 289 vstem
          135 450 -63 callsubr
          endchar
        </CharString>
        <CharString name="tbar">
          -234 -4 70 219 48 117 57 hstem
          34 305 vstem
          331 450 rmoveto
          8 57 rlineto
          -122 hlineto
          19 113 -71 -11 -19 -102 rlineto
          -88 hlineto
          -8 -57 rlineto
          85 hlineto
          -20 -117 rlineto
          -74 hlineto
          -7 -48 rlineto
          73 hlineto
          -30 -179 46 callgsubr
          -46 19 -19 58 60 73 -64 callsubr
          -132 vlineto
          33 219 rlineto
          121 hlineto
          7 48 rlineto
          -121 hlineto
          18 117 rlineto
          endchar
        </CharString>
        <CharString name="tcaron">
          74 callsubr
          317 71 vstem
          288 19 callgsubr
          -153 -119 -63 callsubr
          endchar
        </CharString>
        <CharString name="thorn">
          -71 -166 37 120 59 394 69 hstem
          65 148 146 82 vstem
          -56 -129 -59 callgsubr
          19 121 rlineto
          -3 7 44 -12 48 hhcurveto
          87 callsubr
          -71 -58 -69 -26 -19 hvcurveto
          -2 3 6 8 9 12 1 9 rlinecurve
          26 177 rlineto
          72 vlineto
          -148 75 callsubr
          -16 -131 -742 rlineto
          112 194 rmoveto
          50 305 rlineto
          19 21 50 41 54 callsubr
          -59 -43 20 9 -18 hvcurveto
          endchar
        </CharString>
        <CharString name="three">
          -107 -10 50 274 53 224 69 hstem
          -8 73 244 84 vstem
          167 40 rmoveto
          -73 -25 29 0 hvcurveto
          -7 92 rlineto
          -25 hlineto
          -1 -44 -29 -47 -65 69 -30 101 122 109 77 140 88 -67 41 -56 15 hvcurveto
          73 23 60 67 79 vvcurveto
          72 -48 68 -110 -108 -60 -85 -34 -18 vhcurveto
          22 -14 rlineto
          39 38 37 25 63 hhcurveto
          66 38 -33 -55 -88 -78 -48 -81 hvcurveto
          -35 -28 hlineto
          11 -25 rlineto
          27 hlineto
          99 43 -51 -88 -86 -50 -49 -92 hvcurveto
          endchar
        </CharString>
        <CharString name="three.osf">
          -128 -166 48 296 27 256 67 hstemhm
          279 80 -76 79 hintmask 10110000
          -8 -118 rmoveto
          -5 -41 rlineto
          0 38 -7 45 180 109 112 139 104 -57 29 -56 6 vhcurveto
          7 vlineto
          hintmask 11101000
          55 28 61 43 100 vvcurveto
          53 -26 73 -121 -116 -58 -93 0 vhcurveto
          25 -20 rlineto
          0 45 46 78 51 43 -18 -56 -80 -69 -54 -111 -20 vhcurveto
          -5 -28 16 -27 rlineto
          29 hlineto
          hintmask 11110000
          89 47 -23 -74 hvcurveto
          hintmask 10110000
          -138 -111 -61 -176 vhcurveto
          endchar
        </CharString>
        <CharString name="threequarters">
          82 callgsubr
          159 43 115 25 117 52 hstemhm
          138 78 4 74 -58 68 hintmask 1001110100000000
          612 691 rmoveto
          hintmask 0101110100000000
          -487 -702 50 -33 484 703 rlineto
          -586 -296 52 callsubr
          hintmask 1001110010000000
          33 callsubr
          hintmask 1001111000000000
          -36 -37 -17 -61 -10 vhcurveto
          -23 vlineto
          hintmask 1001110100000000
          83 callgsubr
          hvcurveto
          hintmask 0101110100000000
          -26 -25 15 0 hvcurveto
          hintmask 0011110100000000
          345 -224 rmoveto
          14 -42 rlineto
          144 hlineto
          hintmask 1001110100000000
          -15 -103 rlineto
          68 hlineto
          hintmask 0011110100000000
          17 103 rlineto
          59 hlineto
          hintmask 1001110100000000
          38 callgsubr
        </CharString>
        <CharString name="tilde">
          -228 595 105 hstem
          61 309 vstem
          96 663 -102 callsubr
          endchar
        </CharString>
        <CharString name="tildecomb">
          595 105 hstem
          -258 309 vstem
          -223 663 -102 callsubr
          endchar
        </CharString>
        <CharString name="tildecomb.case">
          704 114 hstem
          -262 337 vstem
          -262 736 -100 callsubr
          endchar
        </CharString>
        <CharString name="trademark">
          310 361 33.5 259.5 45 -37.5 37.5 hstemhm
          188 77 188 48 258 77 hintmask 11011100
          145 391 rmoveto
          -30 164 30 vlineto
          -44 7 rlineto
          256 66 vlineto
          15 -58 rlineto
          39 103 -318 -103 39 hlineto
          15 58 rlineto
          67 -256 hlineto
          221 -9 rmoveto
          -28 135 28 vlineto
          -43 8 rlineto
          241 6 vlineto
          93 -277 rlineto
          56 hlineto
          hintmask 10111100
          97 275 rlineto
          6 -238 hlineto
          -43 -7 rlineto
          -30 164 30 vlineto
          -44 7 rlineto
          260 vlineto
          44 7 rlineto
          34 -157 vlineto
          -74 -216 -8 -39 -8 39 rlineto
          hintmask 11011100
          -71 216 rlineto
          -148 -34 hlineto
          39 -5 rlineto
          -263 vlineto
          endchar
        </CharString>
        <CharString name="two">
          -77 0 69 518 73 hstem
          346 85 vstem
          12 hmoveto
          378 hlineto
          30 156 -44 7 -34 -94 rlineto
          -254 hlineto
          -2 6 136 132 rlineto
          137 133 72 78 101 vvcurveto
          81 -55 60 -103 -116 -72 -89 -34 -21 vhcurveto
          21 -17 rlineto
          39 44 42 28 60 hhcurveto
          80 35 -35 -60 -59 -18 -50 -136 -131 hvcurveto
          -205 -198 rlineto
          endchar
        </CharString>
        <CharString name="two.osf">
          -77 0 64 394 70 hstem
          328 85 vstem
          8 58 rmoveto
          20 -58 rlineto
          363 hlineto
          18 131 -42 8 -30 -75 rlineto
          -223 hlineto
          -4 12 112 83 rlineto
          99 73 92 65 98 vvcurveto
          85 -53 48 -102 -126 -76 -120 0 vhcurveto
          21 -19 rlineto
          29 37 58 40 71 hhcurveto
          49 36 -23 -47 -38 -12 -41 -102 -83 hvcurveto
          endchar
        </CharString>
        <CharString name="u">
          -72 callsubr
          hintmask 01010110
          128 434 -99 callsubr
        </CharString>
        <CharString name="uacute">
          -72 callsubr
          hintmask 01010110
          242 591 -95 callsubr
          -253 -299 -99 callsubr
        </CharString>
        <CharString name="ubreve">
          -70 callgsubr
          75 60 -48 callgsubr
          26 63 75 153 hintmask 0101101010000000
          458 697 rmoveto
          -21 18 rlineto
          hintmask 0101101110000000
          -80 callgsubr
          hvcurveto
          hintmask 0101101010000000
          -29 callsubr
          -330 -263 56 callsubr
          hintmask 1001101010000000
          -93 callsubr
          hintmask 0101101010000000
          -96 callsubr
          hintmask 1001101010000000
          -96 callgsubr
          hintmask 0110110010000000
          -10 callsubr
          endchar
        </CharString>
        <CharString name="ucircumflex">
          -72 callsubr
          hintmask 01010110
          260 690 -104 callsubr
          -132 -256 -99 callsubr
        </CharString>
        <CharString name="udieresis">
          -8 callgsubr
          10 108 46 153 -121 108 hintmask 0000000000000000
          hintmask 0101101101000000
          161 637 -28 callsubr
          -219 -203 rmoveto
          -53 callgsubr
          hintmask 0101101010000000
          -96 callsubr
          hintmask 1001101010000000
          -96 callgsubr
          hintmask 0110110010000000
          -10 callsubr
          endchar
        </CharString>
        <CharString name="ugrave">
          -72 callsubr
          hintmask 01010110
          246 624 -88 callgsubr
          -118 -190 -99 callsubr
        </CharString>
        <CharString name="uhorn">
          -72 callsubr
          68 66 hintmask 01010111
          602 500 -89 callgsubr
        </CharString>
        <CharString name="uhungarumlaut">
          -72 callsubr
          hintmask 01010110
          264 -58 callsubr
          -288 -311 -99 callsubr
        </CharString>
        <CharString name="umacron">
          -70 callgsubr
          121 63 -48 callgsubr
          164 153 hintmask 01011011
          174 677 -54 callgsubr
          -328 -243 56 callsubr
          hintmask 10011011
          -93 callsubr
          hintmask 01011011
          -96 callsubr
          hintmask 10011011
          -96 callgsubr
          hintmask 01101101
          -10 callsubr
          endchar
        </CharString>
        <CharString name="underscore">
          -97 -60 59 hstem
          0 450 vstem
          -1 vmoveto
          -59 450 59 vlineto
          endchar
        </CharString>
        <CharString name="uni00A0">
          -367 endchar
        </CharString>
        <CharString name="uni00AD">
          40 callgsubr
        </CharString>
        <CharString name="uni00B2">
          -237 361 53 241 52 hstem
          200 77 vstem
          2 399 47 callgsubr
          17 callsubr
        </CharString>
        <CharString name="uni00B3">
          -257 355 43 115 25 117 52 hstemhm
          98 78 4 74 -58 68 hintmask 11101000
          33 413 52 callsubr
          hintmask 11100100
          33 callsubr
          hintmask 11110000
          -36 -37 -17 -61 -10 vhcurveto
          -23 vlineto
          hintmask 11101000
          83 callgsubr
          -26 -25 15 0 hvcurveto
          endchar
        </CharString>
        <CharString name="uni00B5">
          -56 callsubr
        </CharString>
        <CharString name="uni00B9">
          -247 361 36 253 51 hstem
          17 255 vstem
          21 397 rmoveto
          -4 -36 rlineto
          251 hlineto
          4 34 -88 14 21 callgsubr
          endchar
        </CharString>
        <CharString name="uni0162">
          -75 -187 42 145 45 callgsubr
          138 77 -2 68 hintmask 11010100
          109 -50 callsubr
          hintmask 11011000
          -34 21 rlineto
          29 94 vlineto
          3 37 -68 14 77 546 rlineto
          121 hlineto
          hintmask 11100100
          -7 -113 rlineto
          52 hlineto
          hintmask 11010100
          41 callgsubr
          -30 callgsubr
          -71 -14 -4 -37 rlineto
          84 hlineto
          -36 -49 rlineto
          -20 vlineto
          hintmask 11010100
          -54 callsubr
        </CharString>
        <CharString name="uni0163">
          -234 -187 42 143 68 -39 39 384 57 hstemhm
          89 77 -2 68 hintmask 11010100
          60 -50 callsubr
          hintmask 11011000
          -34 21 rlineto
          26 vlineto
          hintmask 10110100
          56 5 60 25 0 vvcurveto
          hintmask 11011000
          39 -132 vlineto
          58 384 rlineto
          123 hlineto
          8 57 rlineto
          -122 hlineto
          19 113 -71 -11 -19 -102 rlineto
          -88 hlineto
          -8 -57 rlineto
          85 hlineto
          -58 -344 46 callgsubr
          -39 13 -19 38 -5 vhcurveto
          -34 -47 rlineto
          -20 vlineto
          hintmask 11010100
          -54 callsubr
        </CharString>
        <CharString name="uni018F">
          69 -11 51 265 55 249 51 hstem
          44 88 349 91 vstem
          318 660 rmoveto
          -89 -66 -25 -17 -36 hvcurveto
          -14 -136 rlineto
          42 hlineto
          31 97 rlineto
          0 40 30 74 133 48 -64 -153 vhcurveto
          -32 -426 vlineto
          -7 -36 -4 -38 -38 vvcurveto
          -161 76 -98 138 216 98 203 210 163 -87 95 -167 vhcurveto
          -32 -620 rmoveto
          -119 -35 72 161 11 0 11 1 10 hvcurveto
          344 hlineto
          -159 -13 -54 -106 -124 hhcurveto
          endchar
        </CharString>
        <CharString name="uni019D">
          107 -167 76 91 121 -100 -21 611 37 hstemhm
          -93 752 hintmask 10111000
          466 648 rmoveto
          77 callsubr
          rlineto
          hintmask 11011000
          -67 -476 rlineto
          -5 hlineto
          -211 527 rlineto
          -145 -27 callgsubr
          68 -14 -84 -593 -6 -42 -11 -25 -19 -13 rlinecurve
          -7 -11 -19 -8 -28 hhcurveto
          -69 hlineto
          2 -15 -11 -30 -29 15 -6 27 87 88 64 140 19 hvcurveto
          66 482 rlineto
          5 hlineto
          209 -519 rlineto
          77 hlineto
          84 597 10 callgsubr
          endchar
        </CharString>
        <CharString name="uni01C4">
          578 -7 callgsubr
          hstemhm
          505 88 hintmask 10011000
          798 797 -87 callsubr
          -814 -798 -64 callgsubr
          536 -7 -81 callgsubr
          -853 -527 rmoveto
          77 546 rlineto
          0 14 4 46 151 48 -82 -142 vhcurveto
          -202 -3 -92 -130 -165 hhcurveto
          -33 -43 6 0 hvcurveto
          endchar
        </CharString>
        <CharString name="uni01C5">
          10 callsubr
          753 696 -89 callsubr
          -767 -694 -69 callgsubr
        </CharString>
        <CharString name="uni01C6">
          69 callsubr
          158 -20 36 callgsubr
          hintmask 1001011010000000
          619 698 -89 callsubr
          hintmask 1001011100000000
          -338 -628 18 callsubr
          hintmask 0101011100000000
          -26 callsubr
          hintmask 0101011010000000
          -55 callgsubr
          hintmask 1001011010000000
          77 callgsubr
          hintmask 1001011100000000
          58 callsubr
          465 293 rmoveto
          hintmask 0011011010000000
          -296 -380 rlineto
          hintmask 1000111010000000
          28 -25 -52 callgsubr
          47 -22 30 0 hvcurveto
          -33 hlineto
          -41 callsubr
          hintmask 1001011010000000
          -26 20 -46 callgsubr
          -47 22 -30 0 hvcurveto
          33 hlineto
          27 95 151 -55 rlineto
          -419 4 -65 callgsubr
          endchar
        </CharString>
        <CharString name="uni01C7">
          293 -14 51 -37 46 -46 152 459 37 hstemhm
          15 838 hintmask 01011000
          19 72 callsubr
          hintmask 00111000
          23 -36 callgsubr
          hintmask 01011000
          -51 callgsubr
          364 106 rmoveto
          hintmask 10011000
          -60 callsubr
          -38 callgsubr
        </CharString>
        <CharString name="uni01C8">
          167 -167 76 91 46 -46 152 361 -20 90 118 -90 37 hstemhm
          512 64 callsubr
          hintmask 11011001
          624 583 -105 callsubr
          -605 -546 26 callsubr
          hintmask 10110110
          23 -36 callgsubr
          hintmask 11010110
          -51 callgsubr
          339 -142 -75 callgsubr
          endchar
        </CharString>
        <CharString name="uni01C9">
          -4 -167 76 87 70 447 -20 90 118 hstemhm
          60 152 -132 147 114 64 callsubr
          hintmask 11111001
          453 583 -105 callsubr
          -294 44 -42 callsubr
          hintmask 11100110
          40 callsubr
          178 -734 -75 callgsubr
          endchar
        </CharString>
        <CharString name="uni01CA">
          505 73 callsubr
          15 1050 hintmask 01110000
          -12 callgsubr
          576 106 rmoveto
          hintmask 10110000
          -60 callsubr
          rlineto
          hintmask 01110000
          -38 callgsubr
        </CharString>
        <CharString name="uni01CB">
          379 -167 76 91 37 476 -20 90 118 -90 37 hstemhm
          724 64 callsubr
          hintmask 11110010
          836 583 -105 callsubr
          -817 -546 rmoveto
          -4 -37 rlineto
          193 hlineto
          3 37 -68 14 66 468 rlineto
          5 hlineto
          209 -519 rlineto
          77 hlineto
          hintmask 11101100
          84 597 10 callgsubr
          -193 hlineto
          77 callsubr
          -67 -476 rlineto
          -5 hlineto
          -211 527 rlineto
          -145 -84 callsubr
          551 -142 -75 callgsubr
          endchar
        </CharString>
        <CharString name="uni01CC">
          258 -167 76 87 -1 callsubr
          -6 -20 96 118 hstemhm
          57 151 119 79 callsubr
          142 151 -90 112 hintmask 0000000000000000
          hintmask 1011011010100000
          715 583 -105 callsubr
          -579 -149 rmoveto
          -68 callgsubr
          hintmask 1101001101000000
          -69 callsubr
          hintmask 1101001011000000
          -75 hlineto
          -66 callgsubr
          hintmask 1100101011000000
          68 -91 callgsubr
          463 -542 81 callsubr
          15 callgsubr
          hintmask 1101001011000000
          60 404 rlineto
          72 -27 callsubr
          -68 -436 15 callsubr
          hintmask 1100101011000000
          14 callgsubr
          endchar
        </CharString>
        <CharString name="uni01CD">
          82 callsubr
          -31 callsubr
          hintmask 11110000
          197 797 -87 callsubr
          -278 -798 -92 callgsubr
          hintmask 11101000
          -106 callgsubr
          endchar
        </CharString>
        <CharString name="uni01CE">
          8 callsubr
          152 -20 -7 callsubr
          hintmask 10101110
          170 696 -89 callsubr
          104 -625 18 callsubr
          hintmask 01011110
          -99 callgsubr
          hintmask 10101110
          -47 callsubr
          endchar
        </CharString>
        <CharString name="uni01CF">
          -220 -17 callgsubr
          hstem
          16 350 vstem
          106 797 -87 callsubr
          -121 -798 -94 callgsubr
          endchar
        </CharString>
        <CharString name="uni01D0">
          -259 -4 -28 callgsubr
          162 -20 -4 callgsubr
          hintmask 11110000
          67 696 -89 callsubr
          hintmask 11101000
          36 -297 rmoveto
          -85 callgsubr
          hintmask 11110000
          -73 callsubr
        </CharString>
        <CharString name="uni01D1">
          -57 callgsubr
          255 797 -87 callsubr
          -15 -846 -105 callgsubr
          endchar
        </CharString>
        <CharString name="uni01D2">
          -89 -9 59 403 60 136 -20 hstem
          48 callsubr
          82 vstem
          169 696 -89 callsubr
          -24 -740 -106 callsubr
          endchar
        </CharString>
        <CharString name="uni01D3">
          88 callsubr
          251 797 -87 callsubr
          -160 -238 -107 callgsubr
          endchar
        </CharString>
        <CharString name="uni01D4">
          -70 callgsubr
          156 -20 -48 callgsubr
          164 153 hintmask 01011011
          185 696 -89 callsubr
          -90 -297 56 callsubr
          hintmask 10011011
          -93 callsubr
          hintmask 01011011
          -96 callsubr
          hintmask 10011011
          -96 callgsubr
          hintmask 01101101
          -10 callsubr
          endchar
        </CharString>
        <CharString name="uni01D5">
          66 callsubr
          55 116 71 63 hstem
          72 81 69 106 105 106 vstem
          260 953 -54 callgsubr
          -269 -250 rmoveto
          -90 callsubr
          211 hmoveto
          -90 callsubr
          -358 -106 -107 callgsubr
          endchar
        </CharString>
        <CharString name="uni01D6">
          -70 callgsubr
          101 112 120 63 -48 callgsubr
          21 108 35 153 -110 108 hintmask 0101110101000000
          205 889 -54 callgsubr
          hintmask 0101110110100000
          -315 -252 -97 callgsubr
          hintmask 1001110101000000
          -230 -203 rmoveto
          -53 callgsubr
          hintmask 0101110101000000
          -96 callsubr
          hintmask 1001110101000000
          -96 callgsubr
          hintmask 0110111001000000
          -10 callsubr
          endchar
        </CharString>
        <CharString name="uni01D7">
          24 callsubr
          338 887 -97 callsubr
          -233 -304 rmoveto
          -90 callsubr
          211 hmoveto
          -90 callsubr
          -358 -106 -107 callgsubr
          endchar
        </CharString>
        <CharString name="uni01D8">
          -12 callsubr
          292 803 -95 callsubr
          hintmask 0101101101000000
          -259 -308 -28 callsubr
          -230 -203 rmoveto
          -53 callgsubr
          hintmask 0101101010000000
          -96 callsubr
          hintmask 1001101010000000
          -96 callgsubr
          hintmask 0110110010000000
          -10 callsubr
          endchar
        </CharString>
        <CharString name="uni01D9">
          24 callsubr
          269 968 -87 callsubr
          -31 -303 rmoveto
          -90 callsubr
          211 hmoveto
          -90 callsubr
          -358 -106 -107 callgsubr
          endchar
        </CharString>
        <CharString name="uni01DA">
          -12 callsubr
          209 908 -89 callsubr
          hintmask 0101101101000000
          -70 -306 -28 callsubr
          -230 -203 rmoveto
          -53 callgsubr
          hintmask 0101101010000000
          -96 callsubr
          hintmask 1001101010000000
          -96 callgsubr
          hintmask 0110110010000000
          -10 callsubr
          endchar
        </CharString>
        <CharString name="uni01DB">
          24 callsubr
          308 906 -88 callsubr
          -35 -203 rmoveto
          -90 callsubr
          211 hmoveto
          -90 callsubr
          -358 -106 -107 callgsubr
          endchar
        </CharString>
        <CharString name="uni01DC">
          -12 callsubr
          266 836 -88 callgsubr
          hintmask 0101101101000000
          -94 -199 -28 callsubr
          -230 -203 rmoveto
          -53 callgsubr
          hintmask 0101101010000000
          -96 callsubr
          hintmask 1001101010000000
          -96 callgsubr
          hintmask 0110110010000000
          -10 callsubr
          endchar
        </CharString>
        <CharString name="uni01EA">
          103 -177 51 115 53 callgsubr
          hstem
          44 91 127 66 187 91 vstem
          401 14 rmoveto
          140 60 65 162 166 vvcurveto
          163 -82 95 -157 -207 -116 -197 -215 -41 callgsubr
          18 17 1 3 16 vhcurveto
          -39 -28 -25 -38 -41 -2 callsubr
          -40 callgsubr
          58 65 37 8 5 vhcurveto
          -266 259 rmoveto
          199 62 137 149 124 45 -64 -153 -207 -54 -145 -158 -130 -38 72 161 vhcurveto
          endchar
        </CharString>
        <CharString name="uni01EB">
          -89 -177 51 117 59 -36 36 403 60 hstemhm
          40 82 11 66 137 82 hintmask 11011010
          418 344 rmoveto
          107 -41 62 -94 -153 -90 -155 -200 28 callsubr
          vhcurveto
          hintmask 11011110
          6 6 0 1 6 hvcurveto
          -39 -28 -24 -37 -41 -2 callsubr
          -40 callgsubr
          vhcurveto
          hintmask 10111110
          62 74 38 0 vhcurveto
          hintmask 11011010
          93 50 52 126 154 vvcurveto
          -137 -280 rmoveto
          -12 -13 -30 -2 -22 hhcurveto
          -75 -19 29 120 114 41 107 16 15 hvcurveto
          12 13 29 6 22 hhcurveto
          75 18 -34 -115 -114 -39 -111 -16 -15 hvcurveto
          endchar
        </CharString>
        <CharString name="uni01F1">
          578 -7 callgsubr
          hstemhm
          505 88 hintmask 10011000
          19 37 -64 callgsubr
          536 -7 -81 callgsubr
          -853 -527 rmoveto
          77 546 rlineto
          0 14 4 46 151 48 -82 -142 vhcurveto
          -202 -3 -92 -130 -165 hhcurveto
          -33 -43 6 0 hvcurveto
          endchar
        </CharString>
        <CharString name="uni01F2">
          10 callsubr
          19 37 -69 callgsubr
        </CharString>
        <CharString name="uni01F3">
          69 callsubr
          36 callgsubr
          hintmask 00000000
          hintmask 10010110
          314 105 18 callsubr
          hintmask 01010110
          -26 callsubr
          hintmask 01010101
          -55 callgsubr
          hintmask 10010101
          77 callgsubr
          hintmask 10010110
          58 callsubr
          465 293 rmoveto
          hintmask 00110101
          -296 -380 rlineto
          hintmask 10001101
          28 -25 -52 callgsubr
          47 -22 30 0 hvcurveto
          -33 hlineto
          -41 callsubr
          hintmask 10010101
          -26 20 -46 callgsubr
          -47 22 -30 0 hvcurveto
          33 hlineto
          27 95 151 -55 rlineto
          -419 4 -65 callgsubr
          endchar
        </CharString>
        <CharString name="uni01F4">
          18 -21 callgsubr
          hstemhm
          48 90 hintmask 10010100
          334 716 -97 callsubr
          hintmask 01110100
          -91 -809 -86 callsubr
        </CharString>
        <CharString name="uni01F5">
          -21 callsubr
          61 callgsubr
          hintmask 11100100
          244 591 -95 callsubr
          hintmask 11011000
          -314 -727 -87 callgsubr
        </CharString>
        <CharString name="uni0200">
          82 callsubr
          -31 callsubr
          hintmask 11110000
          212 -77 callsubr
          -467 -664 -92 callgsubr
          hintmask 11101000
          -106 callgsubr
          endchar
        </CharString>
        <CharString name="uni0201">
          -53 -55 callsubr
          208 -76 callgsubr
          -102 -477 18 callsubr
          hintmask 01011100
          -99 callgsubr
          hintmask 10101100
          -47 callsubr
          endchar
        </CharString>
        <CharString name="uni0202">
          -63 callgsubr
          133 63 hstemhm
          -51 -31 callsubr
          hintmask 11111000
          179 -71 callgsubr
          -225 -677 -92 callgsubr
          hintmask 11110100
          -106 callgsubr
          endchar
        </CharString>
        <CharString name="uni0203">
          8 callsubr
          158 60 -7 callsubr
          -64 63 hintmask 10101101
          162 50 callsubr
          -39 callsubr
          37 callsubr
          hintmask 10101110
          145 -480 18 callsubr
          hintmask 01011110
          -99 callgsubr
          hintmask 10101110
          -25 -35 rlineto
          5 -10 -54 26 -50 hhcurveto
          -162 -63 -266 -97 -97 33 -62 85 61 57 60 55 31 hvcurveto
          hintmask 10101101
          -79 callsubr
        </CharString>
        <CharString name="uni0204">
          5 callsubr
          hstemhm
          428 49 hintmask 10101100
          214 -77 callsubr
          -403 -664 -103 callsubr
        </CharString>
        <CharString name="uni0205">
          -159 -29 callgsubr
          177 -76 callgsubr
          -35 -515 -107 callsubr
          endchar
        </CharString>
        <CharString name="uni0206">
          5 callsubr
          118 83 callsubr
          181 -71 callgsubr
          -161 -677 rmoveto
          -4 -37 rlineto
          409 hlineto
          hintmask 01101110
          19 -36 callgsubr
          hintmask 10101110
          -103 callgsubr
          hintmask 10110110
          -110 49 vlineto
          hintmask 10101110
          -77 callgsubr
        </CharString>
        <CharString name="uni0207">
          65 callgsubr
          142 60 hstemhm
          40 81 181 76 -29 63 hintmask 11111000
          131 50 callsubr
          hintmask 11110100
          -39 callsubr
          hvcurveto
          hintmask 11111000
          37 callsubr
          212 -518 -107 callsubr
          endchar
        </CharString>
</ttFont>
